<?xml version="1.0" encoding="UTF-8" standalone="no"?>
<svg
   xmlns:dc="http://purl.org/dc/elements/1.1/"
   xmlns:cc="http://creativecommons.org/ns#"
   xmlns:rdf="http://www.w3.org/1999/02/22-rdf-syntax-ns#"
   xmlns:svg="http://www.w3.org/2000/svg"
   xmlns="http://www.w3.org/2000/svg"
   viewBox="0 0 1066.6667 1066.6667"
   height="1066.6667"
   width="1066.6667"
   xml:space="preserve"
   id="svg2"
   version="1.1"><metadata
     id="metadata8"><rdf:RDF><cc:Work
         rdf:about=""><dc:format>image/svg+xml</dc:format><dc:type
           rdf:resource="http://purl.org/dc/dcmitype/StillImage" /></cc:Work></rdf:RDF></metadata><defs
     id="defs6" /><g
     transform="matrix(1.3333333,0,0,-1.3333333,0,1066.6667)"
     id="g10"><g
       transform="scale(0.1)"
       id="g12"><path
         id="path14"
         style="fill:#ffffff;fill-opacity:1;fill-rule:nonzero;stroke:none"
         d="M 7999.98,0 H 0 V 8000 H 7999.98 V 0" /><path
         id="path16"
         style="fill:#000000;fill-opacity:1;fill-rule:nonzero;stroke:none"
         d="m 636.852,3238.41 506.768,-353.07 v 178.08 c 0,8.42 6.81,15.22 15.23,15.22 H 2580.4 v 319.53 H 1158.85 c -8.42,0 -15.23,6.82 -15.23,15.24 v 178.1 z m 521.998,-397.46 c -3.06,0 -6.1,0.92 -8.7,2.73 l -548.63,382.24 c -4.094,2.84 -6.532,7.51 -6.532,12.49 0,4.98 2.438,9.66 6.532,12.49 l 548.63,382.28 c 4.67,3.23 10.72,3.65 15.75,1.01 5.03,-2.63 8.18,-7.83 8.18,-13.5 v -192.06 h 1421.55 c 8.41,0 15.22,-6.8 15.22,-15.22 v -349.99 c 0,-8.42 -6.81,-15.24 -15.22,-15.24 H 1174.08 v -192 c 0,-5.67 -3.15,-10.88 -8.18,-13.5 -2.22,-1.17 -4.64,-1.73 -7.05,-1.73" /><path
         id="path18"
         style="fill:#000000;fill-opacity:1;fill-rule:nonzero;stroke:none"
         d="m 4032.78,5408.26 h 319.53 V 6829.8 c 0,8.42 6.82,15.23 15.24,15.23 h 178.08 l -353.09,506.74 -353.04,-506.74 h 178.06 c 8.42,0 15.22,-6.81 15.22,-15.23 z m 334.77,-30.46 h -349.99 c -8.42,0 -15.23,6.81 -15.23,15.23 v 1421.55 h -192 c -5.66,0 -10.87,3.14 -13.5,8.17 -2.62,5.03 -2.23,11.1 1.01,15.75 l 382.21,548.61 c 5.67,8.18 19.3,8.18 24.98,0 l 380.25,-545.71 c 3.27,-2.79 5.35,-6.96 5.35,-11.6 0.02,-8.52 -6.46,-15.82 -15.53,-15.22 -0.09,0 -0.2,0 -0.3,0 H 4382.77 V 5393.03 c 0,-8.42 -6.8,-15.23 -15.22,-15.23" /><path
         id="path20"
         style="fill:#ffffff;fill-opacity:1;fill-rule:nonzero;stroke:none"
         d="M 7305.11,3795.57 H 5490.62 v -396.04 h 1814.49 v 396.04" /><path
         id="path22"
         style="fill:#000000;fill-opacity:1;fill-rule:nonzero;stroke:none"
         d="m 5505.85,3414.76 h 1784.02 v 365.57 H 5505.85 Z m 1799.26,-30.45 H 5490.62 c -8.42,0 -15.23,6.8 -15.23,15.22 v 396.04 c 0,8.41 6.81,15.22 15.23,15.22 h 1814.49 c 8.41,0 15.22,-6.81 15.22,-15.22 v -396.04 c 0,-8.42 -6.81,-15.22 -15.22,-15.22" /><path
         id="path24"
         style="fill:#ffffff;fill-opacity:1;fill-rule:nonzero;stroke:none"
         d="M 5490.62,3399.53 V 623.66 H 7305.11 V 3399.53 H 5490.62" /><path
         id="path26"
         style="fill:#000000;fill-opacity:1;fill-rule:nonzero;stroke:none"
         d="M 5505.85,638.891 H 7289.87 V 3384.31 H 5505.85 Z m 1799.26,-30.45 H 5490.62 c -8.42,0 -15.23,6.797 -15.23,15.219 v 2775.87 c 0,8.42 6.81,15.23 15.23,15.23 h 1814.49 c 8.41,0 15.22,-6.81 15.22,-15.23 V 623.66 c 0,-8.422 -6.81,-15.219 -15.22,-15.219" /><path
         id="path28"
         style="fill:#ffffff;fill-opacity:1;fill-rule:nonzero;stroke:none"
         d="M 5743.95,1507.67 H 7051.78" /><path
         id="path30"
         style="fill:#000000;fill-opacity:1;fill-rule:nonzero;stroke:none"
         d="M 7051.78,1492.44 H 5743.95 c -8.42,0 -15.24,6.81 -15.24,15.23 0,8.41 6.82,15.23 15.24,15.23 h 1307.83 c 8.42,0 15.23,-6.82 15.23,-15.23 0,-8.42 -6.81,-15.23 -15.23,-15.23" /><path
         id="path32"
         style="fill:#ffffff;fill-opacity:1;fill-rule:nonzero;stroke:none"
         d="m 5743.95,1178.55 h 998.26" /><path
         id="path34"
         style="fill:#000000;fill-opacity:1;fill-rule:nonzero;stroke:none"
         d="m 6742.21,1163.33 h -998.26 c -8.42,0 -15.24,6.81 -15.24,15.22 0,8.42 6.82,15.24 15.24,15.24 h 998.26 c 8.42,0 15.23,-6.82 15.23,-15.24 0,-8.41 -6.81,-15.22 -15.23,-15.22" /><path
         id="path36"
         style="fill:#ffffff;fill-opacity:1;fill-rule:nonzero;stroke:none"
         d="m 6069.1,2455.03 c -0.93,181.61 145.61,329.71 327.34,330.65 181.69,0.93 329.69,-145.62 330.66,-327.29 0.92,-181.7 -145.62,-329.71 -327.32,-330.66 -181.66,-0.95 -329.71,145.56 -330.68,327.3 z m -147.83,-242.24 -57.72,-69.06 c 21.76,-37.09 47.19,-71.77 75.89,-103.42 l 83.23,34.39 60.34,-56.4 72.65,-39.2 -6.05,-89.85 c 38.85,-17.01 79.61,-30.29 122.18,-39.03 l 47.08,76.77 81.96,-10.14 81.91,10.97 47.93,-76.29 c 42.33,9.22 83.08,22.84 121.71,40.28 l -7.06,89.82 72.32,39.91 59.68,57.05 83.6,-33.55 c 28.46,31.91 53.5,66.81 74.89,104.14 l -58.39,68.5 34.93,74.77 14.79,81.29 87.46,22.04 c 2.05,21.09 3.11,42.44 3.02,64.06 -0.14,21.62 -1.36,43.04 -3.64,64.11 l -87.66,21.08 -15.68,81.11 -35.73,74.45 57.69,69.1 c -21.75,37.06 -47.15,71.75 -75.88,103.36 l -83.23,-34.39 -60.33,56.38 -72.72,39.25 6.12,89.86 c -38.84,17 -79.62,30.21 -122.15,38.98 l -47.07,-76.7 -82.06,10.12 -81.79,-11 -48.01,76.32 c -42.37,-9.25 -83.03,-22.89 -121.65,-40.32 l 7.03,-89.78 -72.31,-39.97 -59.84,-57.02 -83.45,33.59 c -28.44,-31.97 -53.48,-66.9 -74.9,-104.19 l 58.38,-68.47 -34.85,-74.8 -14.91,-81.29 -87.37,-22.01 c -2.1,-21.09 -3.1,-42.44 -2.96,-64.1 0.11,-21.57 1.28,-43.01 3.56,-64.1 l 87.6,-21.09 15.68,-81.1 35.78,-74.43" /><path
         id="path38"
         style="fill:#000000;fill-opacity:1;fill-rule:nonzero;stroke:none"
         d="m 6398.15,2785.68 -1.64,-15.22 c -173.01,-0.9 -313.06,-142.38 -312.18,-315.34 0.91,-172.13 141.64,-312.16 313.69,-312.16 174.68,0.89 314.72,142.38 313.85,315.34 -0.92,172.12 -141.66,312.16 -313.72,312.16 z m 1.69,-673.18 c -190.59,0 -344.96,153.62 -345.97,342.44 -0.97,189.79 152.67,344.99 342.5,345.98 0.01,0 1.76,0 1.78,0 188.76,0 343.17,-153.63 344.17,-342.44 0.97,-189.8 -152.67,-344.99 -342.48,-345.98 z M 6165.54,1899 c 32.33,-13.5 65.51,-24.12 98.89,-31.62 l 41.46,67.58 c 3.13,5.09 9.08,7.97 14.85,7.14 l 80.01,-9.9 79.97,10.7 c 5.96,1.13 11.73,-1.9 14.91,-6.98 l 42.19,-67.14 c 33.57,7.95 66.63,18.89 98.53,32.61 l -6.21,79.05 c -0.46,5.95 2.58,11.63 7.82,14.51 l 70.59,38.97 58.24,55.68 c 4.34,4.16 10.69,5.35 16.2,3.12 l 73.58,-29.54 c 22.44,26.12 42.79,54.41 60.64,84.36 l -51.37,60.26 c -3.89,4.52 -4.75,10.91 -2.22,16.33 l 34.1,72.99 14.44,79.35 c 1.06,5.86 5.46,10.56 11.26,12.02 l 76.96,19.42 c 1.42,17.4 2.08,34.83 2.01,51.88 -0.1,17.34 -0.93,34.74 -2.49,51.87 l -77.15,18.55 c -5.8,1.41 -10.25,6.08 -11.37,11.94 l -15.31,79.17 -34.89,72.66 c -2.59,5.39 -1.79,11.78 2.04,16.36 l 50.75,60.8 c -18.17,29.81 -38.77,57.88 -61.41,83.7 l -73.26,-30.25 c -5.5,-2.27 -11.89,-1.1 -16.21,2.95 l -58.89,55.04 -70.99,38.31 c -5.26,2.83 -8.37,8.48 -7.97,14.43 l 5.4,79.07 c -32.2,13.43 -65.38,24.03 -98.9,31.58 l -41.42,-67.51 c -3.11,-5.08 -8.8,-7.99 -14.84,-7.14 l -80.11,9.88 -79.84,-10.75 c -6.06,-0.75 -11.77,1.95 -14.93,6.99 l -42.26,67.18 c -33.51,-7.96 -66.55,-18.91 -98.48,-32.65 l 6.18,-79.01 c 0.46,-5.95 -2.58,-11.63 -7.82,-14.51 l -70.57,-39.03 -58.44,-55.66 c -4.33,-4.14 -10.7,-5.32 -16.18,-3.1 l -73.42,29.54 c -22.39,-26.12 -42.74,-54.43 -60.65,-84.38 l 51.37,-60.23 c 3.87,-4.53 4.73,-10.92 2.22,-16.3 l -34.03,-73.05 -14.56,-79.36 c -1.07,-5.88 -5.47,-10.59 -11.25,-12.02 l -76.9,-19.39 c -1.4,-17.22 -2.05,-34.62 -1.93,-51.84 0.09,-17.52 0.9,-34.92 2.43,-51.93 l 77.08,-18.57 c 5.8,-1.39 10.24,-6.06 11.38,-11.92 l 15.3,-79.18 34.93,-72.64 c 2.59,-5.38 1.79,-11.77 -2.04,-16.35 l -50.78,-60.76 c 18.12,-29.72 38.74,-57.8 61.44,-83.76 l 73.24,30.25 c 5.46,2.28 11.85,1.12 16.21,-2.95 l 58.9,-55.06 70.92,-38.24 c 5.25,-2.86 8.38,-8.48 7.98,-14.43 z m 106.25,-64.01 c -1.02,0 -2.04,0.1 -3.07,0.3 -42.38,8.71 -84.51,22.19 -125.22,40 -5.87,2.59 -9.52,8.58 -9.09,14.96 l 5.4,80.11 -64.04,34.53 c -1.14,0.63 -2.22,1.4 -3.16,2.29 l -53.19,49.7 -74.16,-30.63 c -5.94,-2.38 -12.79,-0.9 -17.09,3.83 -29.31,32.3 -55.46,67.97 -77.75,105.95 -3.25,5.53 -2.68,12.52 1.45,17.46 l 51.42,61.54 -31.52,65.59 c -0.57,1.18 -0.99,2.43 -1.22,3.71 l -13.82,71.47 -78.1,18.8 c -6.24,1.51 -10.88,6.79 -11.56,13.17 -2.3,21.42 -3.54,43.49 -3.64,65.68 -0.16,21.8 0.87,43.9 3.03,65.67 0.64,6.37 5.2,11.69 11.43,13.24 l 77.87,19.63 13.15,71.65 c 0.22,1.28 0.62,2.53 1.18,3.69 l 30.72,65.94 -52.04,61.04 c -4.18,4.87 -4.81,11.86 -1.62,17.46 22.01,38.31 47.83,74.22 76.74,106.73 4.28,4.8 11.14,6.39 17.06,4 l 74.35,-29.94 52.76,50.25 c 0.93,0.91 1.99,1.68 3.13,2.31 l 63.73,35.23 -6.28,80.01 c -0.51,6.4 3.07,12.43 8.93,15.07 40.15,18.12 82.09,32.01 124.67,41.31 6.16,1.44 12.71,-1.34 16.13,-6.77 l 42.79,-68.02 72.08,9.7 c 1.29,0.19 2.6,0.21 3.9,0.01 l 72.35,-8.93 41.94,68.37 c 3.36,5.46 9.75,8.22 16.06,6.95 42.56,-8.79 84.68,-22.22 125.19,-39.94 5.87,-2.58 9.52,-8.57 9.09,-14.99 l -5.48,-80.09 64.1,-34.59 c 1.16,-0.63 2.22,-1.39 3.16,-2.28 l 53.18,-49.69 74.18,30.64 c 5.95,2.45 12.74,0.93 17.08,-3.82 29.21,-32.14 55.37,-67.77 77.73,-105.91 3.26,-5.52 2.69,-12.52 -1.43,-17.45 l -51.42,-61.57 31.51,-65.62 c 0.56,-1.19 0.97,-2.44 1.22,-3.72 l 13.8,-71.47 78.14,-18.8 c 6.27,-1.51 10.91,-6.78 11.59,-13.17 2.33,-21.57 3.58,-43.64 3.71,-65.65 0.1,-21.56 -0.95,-43.63 -3.08,-65.64 -0.63,-6.39 -5.2,-11.72 -11.44,-13.26 l -77.95,-19.66 -13.04,-71.65 c -0.22,-1.28 -0.62,-2.53 -1.18,-3.72 l -30.79,-65.88 52.03,-61.07 c 4.18,-4.88 4.82,-11.87 1.64,-17.46 -21.97,-38.31 -47.78,-74.21 -76.75,-106.69 -4.27,-4.82 -11.09,-6.42 -17.04,-3.98 l -74.49,29.89 -52.59,-50.27 c -0.94,-0.92 -2.02,-1.69 -3.16,-2.32 l -63.72,-35.18 6.29,-80.04 c 0.51,-6.4 -3.07,-12.43 -8.93,-15.09 -40.1,-18.08 -82.06,-31.97 -124.72,-41.25 -6.4,-1.34 -12.74,1.34 -16.15,6.78 l -42.72,68 -72.2,-9.67 c -1.3,-0.18 -2.61,-0.21 -3.89,-0.03 l -72.24,8.92 -41.95,-68.4 c -2.82,-4.55 -7.77,-7.27 -12.98,-7.27" /><path
         id="path40"
         style="fill:#ffffff;fill-opacity:1;fill-rule:nonzero;stroke:none"
         d="m 6180.37,3596.79 c 0,-35.5 -28.77,-64.23 -64.22,-64.23 -35.49,0 -64.23,28.73 -64.23,64.23 0,35.44 28.74,64.22 64.23,64.22 35.45,0 64.22,-28.78 64.22,-64.22" /><path
         id="path42"
         style="fill:#000000;fill-opacity:1;fill-rule:nonzero;stroke:none"
         d="m 6116.15,3645.78 c -27.02,0 -49,-21.98 -49,-48.99 0,-27.02 21.98,-49.01 49,-49.01 27.01,0 48.99,21.99 48.99,49.01 0,27.01 -21.98,48.99 -48.99,48.99 z m 0,-128.45 c -43.81,0 -79.46,35.65 -79.46,79.46 0,43.82 35.65,79.44 79.46,79.44 43.81,0 79.45,-35.62 79.45,-79.44 0,-43.81 -35.64,-79.46 -79.45,-79.46" /><path
         id="path44"
         style="fill:#ffffff;fill-opacity:1;fill-rule:nonzero;stroke:none"
         d="m 6461.27,3596.79 c 0,-35.5 -28.74,-64.23 -64.22,-64.23 -35.44,0 -64.26,28.73 -64.26,64.23 0,35.44 28.82,64.22 64.26,64.22 35.48,0 64.22,-28.78 64.22,-64.22" /><path
         id="path46"
         style="fill:#000000;fill-opacity:1;fill-rule:nonzero;stroke:none"
         d="m 6397.05,3645.78 c -27.04,0 -49.03,-21.98 -49.03,-48.99 0,-27.02 21.99,-49.01 49.03,-49.01 27,0 48.99,21.99 48.99,49.01 0,27.01 -21.99,48.99 -48.99,48.99 z m 0,-128.45 c -43.83,0 -79.49,35.65 -79.49,79.46 0,43.82 35.66,79.44 79.49,79.44 43.81,0 79.44,-35.62 79.44,-79.44 0,-43.81 -35.63,-79.46 -79.44,-79.46" /><path
         id="path48"
         style="fill:#ffffff;fill-opacity:1;fill-rule:nonzero;stroke:none"
         d="m 6742.21,3596.79 c 0,-35.5 -28.75,-64.23 -64.19,-64.23 -35.5,0 -64.24,28.73 -64.24,64.23 0,35.44 28.74,64.22 64.24,64.22 35.44,0 64.19,-28.78 64.19,-64.22" /><path
         id="path50"
         style="fill:#000000;fill-opacity:1;fill-rule:nonzero;stroke:none"
         d="m 6678.02,3645.78 c -27.02,0 -49.02,-21.98 -49.02,-48.99 0,-27.02 22,-49.01 49.02,-49.01 26.99,0 48.96,21.99 48.96,49.01 0,27.01 -21.97,48.99 -48.96,48.99 z m 0,-128.45 c -43.82,0 -79.48,35.65 -79.48,79.46 0,43.82 35.66,79.44 79.48,79.44 43.79,0 79.42,-35.62 79.42,-79.44 0,-43.81 -35.63,-79.46 -79.42,-79.46" /><path
         id="path52"
         style="fill:#ffffff;fill-opacity:1;fill-rule:nonzero;stroke:none"
         d="m 1868.96,5904.74 c -1.67,335.86 269.28,609.62 605.25,611.34 335.93,1.71 609.68,-269.23 611.37,-605.2 1.72,-335.97 -269.21,-609.64 -605.21,-611.36 -335.93,-1.76 -609.67,269.16 -611.41,605.22 z m -273.38,-447.97 -106.65,-127.64 c 40.21,-68.61 87.22,-132.69 140.33,-191.22 l 153.83,63.55 111.63,-104.24 134.35,-72.52 -11.3,-166.17 c 71.84,-31.43 147.32,-55.94 225.9,-72.15 l 87.14,141.98 151.54,-18.75 151.4,20.27 88.66,-141.06 c 78.29,17.04 153.59,42.29 225.09,74.46 l -13.04,166.09 133.63,73.84 110.51,105.45 154.53,-62.02 c 52.54,59 98.91,123.55 138.46,192.55 l -108.01,126.68 64.59,138.28 27.43,150.31 161.66,40.72 c 3.77,38.96 5.65,78.47 5.56,118.45 -0.27,40 -2.55,79.59 -6.76,118.57 l -162.06,38.97 -28.93,149.92 -66.14,137.66 106.7,127.77 c -40.27,68.56 -87.17,132.74 -140.31,191.12 l -153.86,-63.57 -111.54,104.31 -134.51,72.53 11.28,166.14 c -71.75,31.43 -147.23,55.91 -225.83,72.15 l -87.04,-141.91 -151.66,18.73 -151.36,-20.3 -88.61,141.04 c -78.44,-17.03 -153.64,-42.26 -225.04,-74.52 l 12.92,-166.01 -133.65,-73.89 -110.57,-105.42 -154.34,62.07 c -52.57,-59.07 -98.94,-123.65 -138.53,-192.63 l 107.98,-126.63 -64.58,-138.29 -27.43,-150.28 -161.61,-40.68 c -3.82,-38.99 -5.64,-78.51 -5.47,-118.56 0.18,-39.94 2.48,-79.53 6.67,-118.54 l 161.96,-38.95 28.98,-149.93 66.1,-137.73" /><path
         id="path54"
         style="fill:#231f20;fill-opacity:1;fill-rule:nonzero;stroke:none"
         d="m 2477.38,6500.87 -3.09,-0.02 c -327,-1.68 -591.72,-269.05 -590.1,-596.04 1.68,-325.37 267.68,-590.08 592.93,-590.08 l 3.17,0.02 c 158.43,0.81 307.06,63.24 418.51,175.82 111.43,112.56 172.36,261.8 171.55,420.23 -1.62,325.37 -267.64,590.07 -592.97,590.07 z m -0.26,-1216.6 c -341.97,0 -621.62,278.31 -623.39,620.39 -1.71,343.78 276.6,624.88 620.41,626.65 l 3.24,0.02 c 342.05,0 621.71,-278.3 623.42,-620.38 0.85,-166.55 -63.2,-323.46 -180.36,-441.81 -117.16,-118.35 -273.42,-183.99 -440,-184.85 z M 2033.7,4868.23 c 65.97,-28.13 134.03,-49.88 202.61,-64.73 l 81.51,132.83 c 3.14,5.07 9.04,7.83 14.86,7.14 l 149.59,-18.51 149.46,20.01 c 5.94,0.81 11.74,-1.91 14.92,-6.99 l 82.94,-131.95 c 68.59,15.63 136.4,38.07 201.88,66.8 l -12.19,155.35 c -0.46,5.95 2.59,11.63 7.82,14.52 l 131.9,72.88 109.08,104.1 c 4.33,4.14 10.67,5.34 16.18,3.11 l 144.56,-58.01 c 46.44,53.18 88.17,111.21 124.19,172.73 L 3352,5456 c -3.87,4.53 -4.74,10.91 -2.21,16.31 l 63.75,136.51 27.08,148.37 c 1.07,5.88 5.47,10.58 11.26,12.03 l 151.2,38.09 c 3.06,35.07 4.58,70.78 4.51,106.29 -0.24,35.47 -2.12,71.19 -5.56,106.32 l -151.58,36.43 c -5.81,1.4 -10.26,6.07 -11.39,11.93 l -28.57,147.99 -65.28,135.9 c -2.59,5.36 -1.79,11.76 2.03,16.34 l 99.81,119.49 c -36.98,61.65 -79.24,119.23 -125.85,171.46 L 3177.28,6600 c -5.51,-2.29 -11.86,-1.13 -16.22,2.95 l -110.11,102.97 -132.77,71.59 c -5.25,2.83 -8.38,8.48 -7.97,14.43 l 10.56,155.39 c -65.75,28.09 -133.79,49.84 -202.54,64.74 l -81.42,-132.73 c -3.13,-5.09 -8.83,-7.89 -14.85,-7.15 l -149.73,18.48 -149.41,-20.05 c -5.86,-0.72 -11.75,1.97 -14.92,7 l -82.9,131.95 c -68.72,-15.63 -136.52,-38.09 -201.84,-66.86 l 12.1,-155.31 c 0.46,-5.94 -2.59,-11.61 -7.82,-14.49 l -131.93,-72.94 -109.15,-104.07 c -4.34,-4.13 -10.68,-5.34 -16.19,-3.11 l -144.34,58.06 c -46.41,-53.15 -88.13,-111.2 -124.28,-172.81 l 101,-118.44 c 3.87,-4.53 4.74,-10.91 2.22,-16.31 l -63.76,-136.52 -27.08,-148.35 c -1.07,-5.88 -5.47,-10.57 -11.26,-12.03 l -151.17,-38.05 c -3.06,-34.84 -4.55,-70.58 -4.4,-106.36 0.16,-35.03 2.01,-70.75 5.48,-106.32 l 151.47,-36.42 c 5.82,-1.39 10.27,-6.06 11.39,-11.92 l 28.62,-148 65.24,-135.96 c 2.59,-5.39 1.78,-11.78 -2.03,-16.36 l -99.75,-119.38 c 36.58,-61.09 78.86,-118.72 125.87,-171.53 l 143.89,59.44 c 5.48,2.34 11.84,1.15 16.21,-2.94 l 110.2,-102.91 132.61,-71.58 c 5.26,-2.84 8.37,-8.48 7.97,-14.44 z m 209.97,-97.08 c -1.01,0 -2.05,0.1 -3.08,0.31 -77.58,16.01 -154.6,40.61 -228.92,73.12 -5.89,2.57 -9.53,8.56 -9.1,14.97 l 10.65,156.41 -125.73,67.85 c -1.14,0.63 -2.22,1.39 -3.16,2.28 l -104.48,97.56 -144.78,-59.82 c -5.94,-2.45 -12.78,-0.93 -17.08,3.84 -53.66,59.15 -101.51,124.33 -142.19,193.75 -3.26,5.55 -2.68,12.54 1.44,17.48 l 100.37,120.11 -61.85,128.9 c -0.57,1.17 -0.98,2.42 -1.22,3.7 l -27.13,140.31 -152.42,36.65 c -6.26,1.52 -10.9,6.78 -11.58,13.19 -4.32,40.1 -6.59,80.5 -6.77,120.09 -0.17,40.48 1.69,80.89 5.55,120.12 0.62,6.39 5.2,11.72 11.43,13.28 l 152.11,38.28 25.67,140.64 c 0.22,1.28 0.63,2.53 1.17,3.71 l 60.46,129.42 -101.63,119.18 c -4.18,4.9 -4.82,11.89 -1.62,17.47 40.18,70 87.4,135.67 140.35,195.17 4.29,4.79 11.16,6.38 17.06,4 l 145.24,-58.41 103.48,98.65 c 0.95,0.91 2.01,1.68 3.15,2.31 l 125.07,69.14 -12.16,156.25 c -0.5,6.4 3.06,12.43 8.9,15.06 73.54,33.22 150.28,58.64 228.09,75.53 6.17,1.35 12.7,-1.35 16.12,-6.78 l 83.4,-132.76 141.66,19 c 1.29,0.17 2.61,0.17 3.88,0.02 l 141.95,-17.52 81.91,133.55 c 3.37,5.47 9.83,8.23 16.07,6.96 77.8,-16.08 154.81,-40.69 228.85,-73.12 5.9,-2.58 9.52,-8.57 9.09,-14.98 l -10.63,-156.36 125.89,-67.88 c 1.14,-0.61 2.22,-1.38 3.17,-2.27 l 104.38,-97.62 144.81,59.81 c 5.94,2.46 12.74,0.96 17.07,-3.82 53.18,-58.42 101.02,-123.57 142.19,-193.64 3.26,-5.55 2.68,-12.54 -1.45,-17.48 l -100.43,-120.25 61.9,-128.83 c 0.57,-1.18 0.99,-2.43 1.22,-3.71 l 27.08,-140.3 152.53,-36.66 c 6.26,-1.5 10.9,-6.78 11.58,-13.17 4.27,-39.55 6.58,-79.95 6.84,-120.11 0.09,-40.18 -1.79,-80.54 -5.63,-120.03 -0.63,-6.39 -5.19,-11.72 -11.44,-13.29 l -152.15,-38.33 -25.67,-140.67 c -0.23,-1.28 -0.63,-2.53 -1.18,-3.7 l -60.45,-129.41 101.65,-119.23 c 4.18,-4.9 4.82,-11.87 1.62,-17.45 -40.05,-69.91 -87.25,-135.55 -140.28,-195.12 -4.27,-4.8 -11.13,-6.42 -17.05,-4 l -145.44,58.38 -103.42,-98.69 c -0.95,-0.91 -2.01,-1.68 -3.16,-2.31 l -125.03,-69.09 12.28,-156.32 c 0.5,-6.41 -3.08,-12.44 -8.94,-15.08 -73.74,-33.16 -150.49,-58.55 -228.1,-75.46 -6.38,-1.27 -12.73,1.37 -16.14,6.78 l -83.45,132.78 -141.69,-18.98 c -1.29,-0.16 -2.6,-0.16 -3.9,-0.01 l -141.81,17.55 -82.01,-133.64 c -2.81,-4.57 -7.76,-7.26 -12.98,-7.26" /><path
         id="path56"
         style="fill:#ffffff;fill-opacity:1;fill-rule:nonzero;stroke:none"
         d="m 1107.39,6983.09 h 1052.86 v -158.91 h 223.45 v 389.03 c 0,87.76 -71.16,158.92 -158.84,158.92 H 1019.67 c -87.744,0 -158.951,-71.16 -158.951,-158.92 v -389.03 h 246.671 v 158.91" /><path
         id="path58"
         style="fill:#000000;fill-opacity:1;fill-rule:nonzero;stroke:none"
         d="m 2175.48,6839.41 h 192.99 v 373.8 c 0,79.24 -64.42,143.69 -143.61,143.69 H 1019.67 c -79.256,0 -143.725,-64.45 -143.725,-143.69 v -373.8 h 216.225 v 143.68 c 0,8.41 6.8,15.23 15.22,15.23 h 1052.86 c 8.42,0 15.23,-6.82 15.23,-15.23 z m 208.22,-30.46 h -223.45 c -8.41,0 -15.23,6.81 -15.23,15.23 v 143.68 h -1022.4 v -143.68 c 0,-8.42 -6.81,-15.23 -15.23,-15.23 H 860.719 c -8.418,0 -15.231,6.81 -15.231,15.23 v 389.03 c 0,96.03 78.133,174.15 174.182,174.15 h 1205.19 c 95.98,0 174.07,-78.12 174.07,-174.15 v -389.03 c 0,-8.42 -6.81,-15.23 -15.23,-15.23" /><path
         id="path60"
         style="fill:#ffffff;fill-opacity:1;fill-rule:nonzero;stroke:none"
         d="m 1825.3,5032.24 c 0,-112.13 -90.93,-203.07 -203.09,-203.07 -112.1,0 -203.03,90.94 -203.03,203.07 H 860.719 v -551.37 c 0,-87.77 71.207,-158.9 158.951,-158.9 h 1205.19 c 87.68,0 158.84,71.13 158.84,158.9 v 551.37 h -558.4" /><path
         id="path62"
         style="fill:#000000;fill-opacity:1;fill-rule:nonzero;stroke:none"
         d="m 875.945,5017.01 v -536.14 c 0,-79.22 64.469,-143.68 143.725,-143.68 h 1205.19 c 79.19,0 143.61,64.46 143.61,143.68 v 536.14 H 1840 c -7.85,-113.29 -102.53,-203.07 -217.79,-203.07 -115.23,0 -209.89,89.78 -217.74,203.07 z M 2224.86,4306.74 H 1019.67 c -96.049,0 -174.182,78.12 -174.182,174.13 v 551.37 c 0,8.42 6.813,15.23 15.231,15.23 h 558.461 c 8.42,0 15.23,-6.81 15.23,-15.23 0,-103.58 84.25,-187.85 187.8,-187.85 103.58,0 187.86,84.27 187.86,187.85 0,8.42 6.81,15.23 15.23,15.23 h 558.4 c 8.42,0 15.23,-6.81 15.23,-15.23 v -551.37 c 0,-96.01 -78.09,-174.13 -174.07,-174.13" /><path
         id="path64"
         style="fill:#ffffff;fill-opacity:1;fill-rule:nonzero;stroke:none"
         d="m 1107.39,6501.38 h 1052.86 v -158.94 h 223.45 v 481.74 H 2160.25 V 6665.26 H 1107.39 v 158.92 H 860.719 v -481.74 h 246.671 v 158.94" /><path
         id="path66"
         style="fill:#000000;fill-opacity:1;fill-rule:nonzero;stroke:none"
         d="m 2175.48,6357.67 h 192.99 v 451.28 h -192.99 v -143.69 c 0,-8.41 -6.81,-15.23 -15.23,-15.23 H 1107.39 c -8.42,0 -15.22,6.82 -15.22,15.23 v 143.69 H 875.945 v -451.28 h 216.225 v 143.71 c 0,8.41 6.8,15.22 15.22,15.22 h 1052.86 c 8.42,0 15.23,-6.81 15.23,-15.22 z m 208.22,-30.46 h -223.45 c -8.41,0 -15.23,6.81 -15.23,15.23 v 143.71 h -1022.4 v -143.71 c 0,-8.42 -6.81,-15.23 -15.23,-15.23 H 860.719 c -8.418,0 -15.231,6.81 -15.231,15.23 v 481.74 c 0,8.42 6.813,15.23 15.231,15.23 h 246.671 c 8.42,0 15.23,-6.81 15.23,-15.23 v -143.69 h 1022.4 v 143.69 c 0,8.42 6.82,15.23 15.23,15.23 h 223.45 c 8.42,0 15.23,-6.81 15.23,-15.23 v -481.74 c 0,-8.42 -6.81,-15.23 -15.23,-15.23" /><path
         id="path68"
         style="fill:#ffffff;fill-opacity:1;fill-rule:nonzero;stroke:none"
         d="m 1622.21,5521.34 c 50.71,0 91.86,-41.11 91.86,-91.8 0,-50.78 -41.15,-91.83 -91.86,-91.83 -50.75,0 -91.8,41.05 -91.8,91.83 0,50.69 41.05,91.8 91.8,91.8 z m 0,-285.98 c 112.16,0 203.09,-90.96 203.09,-203.12 h 558.4 v 1310.2 h -223.45 v -158.9 H 1107.39 v 158.9 H 860.719 v -1310.2 h 558.461 c 0,112.16 90.93,203.12 203.03,203.12" /><path
         id="path70"
         style="fill:#000000;fill-opacity:1;fill-rule:nonzero;stroke:none"
         d="m 1622.21,5506.11 c -42.22,0 -76.58,-34.35 -76.58,-76.57 0,-42.24 34.36,-76.61 76.58,-76.61 42.25,0 76.63,34.37 76.63,76.61 0,42.22 -34.38,76.57 -76.63,76.57 z m 0,-183.63 c -59.01,0 -107.03,48.02 -107.03,107.06 0,59.01 48.02,107.03 107.03,107.03 59.05,0 107.09,-48.02 107.09,-107.03 0,-59.04 -48.04,-107.06 -107.09,-107.06 z M 1840,5047.47 h 528.47 v 1279.74 h -192.99 v -143.67 c 0,-8.42 -6.81,-15.23 -15.23,-15.23 H 1107.39 c -8.42,0 -15.22,6.81 -15.22,15.23 v 143.67 H 875.945 V 5047.47 h 528.525 c 7.85,113.32 102.51,203.12 217.74,203.12 115.26,0 209.94,-89.8 217.79,-203.12 z m 543.7,-30.46 h -558.4 c -8.42,0 -15.23,6.81 -15.23,15.23 0,103.59 -84.28,187.89 -187.86,187.89 -103.55,0 -187.8,-84.3 -187.8,-187.89 0,-8.42 -6.81,-15.23 -15.23,-15.23 H 860.719 c -8.418,0 -15.231,6.81 -15.231,15.23 v 1310.2 c 0,8.42 6.813,15.23 15.231,15.23 h 246.671 c 8.42,0 15.23,-6.81 15.23,-15.23 v -143.68 h 1022.4 v 143.68 c 0,8.42 6.82,15.23 15.23,15.23 h 223.45 c 8.42,0 15.23,-6.81 15.23,-15.23 v -1310.2 c 0,-8.42 -6.81,-15.23 -15.23,-15.23" /><path
         id="path72"
         style="fill:#ffffff;fill-opacity:1;fill-rule:nonzero;stroke:none"
         d="m 1622.21,5235.36 c -112.1,0 -203.03,-90.96 -203.03,-203.12 0,-112.13 90.93,-203.07 203.03,-203.07 112.16,0 203.09,90.94 203.09,203.07 0,112.16 -90.93,203.12 -203.09,203.12" /><path
         id="path74"
         style="fill:#000000;fill-opacity:1;fill-rule:nonzero;stroke:none"
         d="m 1622.21,5220.13 c -103.55,0 -187.8,-84.3 -187.8,-187.89 0,-103.58 84.25,-187.85 187.8,-187.85 103.58,0 187.86,84.27 187.86,187.85 0,103.59 -84.28,187.89 -187.86,187.89 z m 0,-406.19 c -120.34,0 -218.26,97.93 -218.26,218.3 0,120.4 97.92,218.35 218.26,218.35 120.39,0 218.32,-97.95 218.32,-218.35 0,-120.37 -97.93,-218.3 -218.32,-218.3" /><path
         id="path76"
         style="fill:#ffffff;fill-opacity:1;fill-rule:nonzero;stroke:none"
         d="m 1622.21,5337.71 c 50.71,0 91.86,41.05 91.86,91.83 0,50.69 -41.15,91.8 -91.86,91.8 -50.75,0 -91.8,-41.11 -91.8,-91.8 0,-50.78 41.05,-91.83 91.8,-91.83" /><path
         id="path78"
         style="fill:#000000;fill-opacity:1;fill-rule:nonzero;stroke:none"
         d="m 1622.21,5506.11 c -42.22,0 -76.58,-34.35 -76.58,-76.57 0,-42.24 34.36,-76.61 76.58,-76.61 42.25,0 76.63,34.37 76.63,76.61 0,42.22 -34.38,76.57 -76.63,76.57 z m 0,-183.63 c -59.01,0 -107.03,48.02 -107.03,107.06 0,59.01 48.02,107.03 107.03,107.03 59.05,0 107.09,-48.02 107.09,-107.03 0,-59.04 -48.04,-107.06 -107.09,-107.06" /><path
         id="path80"
         style="fill:#ffffff;fill-opacity:1;fill-rule:nonzero;stroke:none"
         d="m 1107.39,6983.09 v -317.83 h 1052.86 v 317.83 H 1107.39" /><path
         id="path82"
         style="fill:#000000;fill-opacity:1;fill-rule:nonzero;stroke:none"
         d="m 1122.62,6680.49 h 1022.4 v 287.37 h -1022.4 z m 1037.63,-30.46 H 1107.39 c -8.42,0 -15.22,6.82 -15.22,15.23 v 317.83 c 0,8.41 6.8,15.23 15.22,15.23 h 1052.86 c 8.42,0 15.23,-6.82 15.23,-15.23 v -317.83 c 0,-8.41 -6.81,-15.23 -15.23,-15.23" /><path
         id="path84"
         style="fill:#ffffff;fill-opacity:1;fill-rule:nonzero;stroke:none"
         d="m 1107.39,6501.38 v -317.84 h 1052.86 v 317.84 H 1107.39" /><path
         id="path86"
         style="fill:#000000;fill-opacity:1;fill-rule:nonzero;stroke:none"
         d="m 1122.62,6198.76 h 1022.4 v 287.39 h -1022.4 z m 1037.63,-30.45 H 1107.39 c -8.42,0 -15.22,6.81 -15.22,15.23 v 317.84 c 0,8.41 6.8,15.22 15.22,15.22 h 1052.86 c 8.42,0 15.23,-6.81 15.23,-15.22 v -317.84 c 0,-8.42 -6.81,-15.23 -15.23,-15.23" /><path
         id="path88"
         style="fill:#ffffff;fill-opacity:1;fill-rule:nonzero;stroke:none"
         d="M 4973.21,6920.4 V 4829.96 H 7214.07 V 6920.4 H 4973.21" /><path
         id="path90"
         style="fill:#000000;fill-opacity:1;fill-rule:nonzero;stroke:none"
         d="m 4988.45,4845.19 h 2210.4 v 2059.98 h -2210.4 z m 2225.62,-30.46 H 4973.21 c -8.42,0 -15.22,6.81 -15.22,15.23 V 6920.4 c 0,8.42 6.8,15.23 15.22,15.23 h 2240.86 c 8.42,0 15.23,-6.81 15.23,-15.23 V 4829.96 c 0,-8.42 -6.81,-15.23 -15.23,-15.23" /><path
         id="path92"
         style="fill:#ffffff;fill-opacity:1;fill-rule:nonzero;stroke:none"
         d="m 7214.07,7105.49 c 0,136.3 -110.5,246.77 -246.77,246.77 H 5220.03 c -136.29,0 -246.82,-110.47 -246.82,-246.77 V 6920.4 h 2240.86 v 185.09" /><path
         id="path94"
         style="fill:#000000;fill-opacity:1;fill-rule:nonzero;stroke:none"
         d="m 4988.45,6935.63 h 2210.4 v 169.86 c 0,127.68 -103.87,231.54 -231.55,231.54 H 5220.03 c -127.7,0 -231.58,-103.86 -231.58,-231.54 z m 2225.62,-30.46 H 4973.21 c -8.42,0 -15.22,6.81 -15.22,15.23 v 185.09 c 0,144.47 117.54,262 262.04,262 H 6967.3 c 144.47,0 262,-117.53 262,-262 V 6920.4 c 0,-8.42 -6.81,-15.23 -15.23,-15.23" /><path
         id="path96"
         style="fill:#ffffff;fill-opacity:1;fill-rule:nonzero;stroke:none"
         d="m 5264.38,7136.32 c 0,-43.53 -35.28,-78.83 -78.87,-78.83 -43.53,0 -78.82,35.3 -78.82,78.83 0,43.55 35.29,78.86 78.82,78.86 43.59,0 78.87,-35.31 78.87,-78.86" /><path
         id="path98"
         style="fill:#000000;fill-opacity:1;fill-rule:nonzero;stroke:none"
         d="m 5185.51,7199.95 c -35.07,0 -63.6,-28.54 -63.6,-63.63 0,-35.07 28.53,-63.61 63.6,-63.61 35.08,0 63.63,28.54 63.63,63.61 0,35.09 -28.55,63.63 -63.63,63.63 z m 0,-157.69 c -51.86,0 -94.05,42.19 -94.05,94.06 0,51.88 42.19,94.08 94.05,94.08 51.88,0 94.09,-42.2 94.09,-94.08 0,-51.87 -42.21,-94.06 -94.09,-94.06" /><path
         id="path100"
         style="fill:#ffffff;fill-opacity:1;fill-rule:nonzero;stroke:none"
         d="m 5505.2,7136.32 c 0,-43.53 -35.33,-78.83 -78.87,-78.83 -43.57,0 -78.85,35.3 -78.85,78.83 0,43.55 35.28,78.86 78.85,78.86 43.54,0 78.87,-35.31 78.87,-78.86" /><path
         id="path102"
         style="fill:#000000;fill-opacity:1;fill-rule:nonzero;stroke:none"
         d="m 5426.33,7199.95 c -35.09,0 -63.62,-28.54 -63.62,-63.63 0,-35.07 28.53,-63.61 63.62,-63.61 35.08,0 63.63,28.54 63.63,63.61 0,35.09 -28.55,63.63 -63.63,63.63 z m 0,-157.69 c -51.88,0 -94.08,42.19 -94.08,94.06 0,51.88 42.2,94.08 94.08,94.08 51.88,0 94.09,-42.2 94.09,-94.08 0,-51.87 -42.21,-94.06 -94.09,-94.06" /><path
         id="path104"
         style="fill:#ffffff;fill-opacity:1;fill-rule:nonzero;stroke:none"
         d="m 5745.98,7136.32 c 0,-43.53 -35.28,-78.83 -78.83,-78.83 -43.58,0 -78.84,35.3 -78.84,78.83 0,43.55 35.26,78.86 78.84,78.86 43.55,0 78.83,-35.31 78.83,-78.86" /><path
         id="path106"
         style="fill:#000000;fill-opacity:1;fill-rule:nonzero;stroke:none"
         d="m 5667.15,7199.95 c -35.07,0 -63.61,-28.54 -63.61,-63.63 0,-35.07 28.54,-63.61 63.61,-63.61 35.06,0 63.6,28.54 63.6,63.61 0,35.09 -28.54,63.63 -63.6,63.63 z m 0,-157.69 c -51.88,0 -94.07,42.19 -94.07,94.06 0,51.88 42.19,94.08 94.07,94.08 51.86,0 94.06,-42.2 94.06,-94.08 0,-51.87 -42.2,-94.06 -94.06,-94.06" /><path
         id="path108"
         style="fill:#ffffff;fill-opacity:1;fill-rule:nonzero;stroke:none"
         d="m 6718.03,7057.49 h 157.71" /><path
         id="path110"
         style="fill:#000000;fill-opacity:1;fill-rule:nonzero;stroke:none"
         d="m 6875.74,7042.26 h -157.71 c -8.42,0 -15.24,6.81 -15.24,15.23 0,8.42 6.82,15.22 15.24,15.22 h 157.71 c 8.42,0 15.23,-6.8 15.23,-15.22 0,-8.42 -6.81,-15.23 -15.23,-15.23" /><path
         id="path112"
         style="fill:#ffffff;fill-opacity:1;fill-rule:nonzero;stroke:none"
         d="m 6942.13,7197.4 139.9,-139.91" /><path
         id="path114"
         style="fill:#000000;fill-opacity:1;fill-rule:nonzero;stroke:none"
         d="m 7082.03,7042.26 c -3.9,0 -7.79,1.49 -10.77,4.46 l -139.9,139.92 c -5.95,5.94 -5.95,15.58 0,21.53 5.95,5.95 15.58,5.95 21.53,0 l 139.9,-139.91 c 5.95,-5.96 5.95,-15.59 0,-21.54 -2.97,-2.97 -6.86,-4.46 -10.76,-4.46" /><path
         id="path116"
         style="fill:#ffffff;fill-opacity:1;fill-rule:nonzero;stroke:none"
         d="m 6942.13,7057.49 139.86,139.96" /><path
         id="path118"
         style="fill:#000000;fill-opacity:1;fill-rule:nonzero;stroke:none"
         d="m 6942.13,7042.26 c -3.9,0 -7.79,1.49 -10.77,4.46 -5.95,5.94 -5.95,15.58 0,21.54 l 139.87,139.95 c 5.95,5.95 15.59,5.95 21.53,0 5.95,-5.93 5.95,-15.58 0,-21.53 l -139.87,-139.96 c -2.97,-2.97 -6.86,-4.46 -10.76,-4.46" /><path
         id="path120"
         style="fill:#ffffff;fill-opacity:1;fill-rule:nonzero;stroke:none"
         d="M 6988.2,6560.52 H 5199.12 v 174.82 H 6988.2 v -174.82" /><path
         id="path122"
         style="fill:#000000;fill-opacity:1;fill-rule:nonzero;stroke:none"
         d="m 5214.35,6575.75 h 1758.62 v 144.36 H 5214.35 Z M 6988.2,6545.29 H 5199.12 c -8.42,0 -15.23,6.81 -15.23,15.23 v 174.82 c 0,8.41 6.81,15.23 15.23,15.23 H 6988.2 c 8.42,0 15.23,-6.82 15.23,-15.23 v -174.82 c 0,-8.42 -6.81,-15.23 -15.23,-15.23" /><path
         id="path124"
         style="fill:#ffffff;fill-opacity:1;fill-rule:nonzero;stroke:none"
         d="m 5997.86,6210.91 h -798.74 v 174.82 h 798.74 v -174.82" /><path
         id="path126"
         style="fill:#000000;fill-opacity:1;fill-rule:nonzero;stroke:none"
         d="m 5214.35,6226.14 h 768.29 v 144.36 h -768.29 z m 783.51,-30.46 h -798.74 c -8.42,0 -15.23,6.82 -15.23,15.23 v 174.82 c 0,8.42 6.81,15.23 15.23,15.23 h 798.74 c 8.42,0 15.23,-6.81 15.23,-15.23 v -174.82 c 0,-8.41 -6.81,-15.23 -15.23,-15.23" /><path
         id="path128"
         style="fill:#ffffff;fill-opacity:1;fill-rule:nonzero;stroke:none"
         d="m 6988.2,6210.91 h -719.71 v 174.82 h 719.71 v -174.82" /><path
         id="path130"
         style="fill:#000000;fill-opacity:1;fill-rule:nonzero;stroke:none"
         d="m 6283.71,6226.14 h 689.26 v 144.36 h -689.26 z m 704.49,-30.46 h -719.71 c -8.42,0 -15.24,6.82 -15.24,15.23 v 174.82 c 0,8.42 6.82,15.23 15.24,15.23 h 719.71 c 8.42,0 15.23,-6.81 15.23,-15.23 v -174.82 c 0,-8.41 -6.81,-15.23 -15.23,-15.23" /><path
         id="path132"
         style="fill:#ffffff;fill-opacity:1;fill-rule:nonzero;stroke:none"
         d="m 6467.62,5861.34 h -1268.5 v 174.8 h 1268.5 v -174.8" /><path
         id="path134"
         style="fill:#000000;fill-opacity:1;fill-rule:nonzero;stroke:none"
         d="m 5214.35,5876.57 h 1238.03 v 144.34 H 5214.35 Z m 1253.27,-30.46 h -1268.5 c -8.42,0 -15.23,6.81 -15.23,15.23 v 174.8 c 0,8.42 6.81,15.23 15.23,15.23 h 1268.5 c 8.42,0 15.22,-6.81 15.22,-15.23 v -174.8 c 0,-8.42 -6.8,-15.23 -15.22,-15.23" /><path
         id="path136"
         style="fill:#ffffff;fill-opacity:1;fill-rule:nonzero;stroke:none"
         d="m 5588.31,5511.73 h -389.19 v 174.81 h 389.19 v -174.81" /><path
         id="path138"
         style="fill:#000000;fill-opacity:1;fill-rule:nonzero;stroke:none"
         d="m 5214.35,5526.96 h 358.73 v 144.35 h -358.73 z m 373.96,-30.46 h -389.19 c -8.42,0 -15.23,6.82 -15.23,15.23 v 174.81 c 0,8.42 6.81,15.23 15.23,15.23 h 389.19 c 8.42,0 15.23,-6.81 15.23,-15.23 v -174.81 c 0,-8.41 -6.81,-15.23 -15.23,-15.23" /><path
         id="path140"
         style="fill:#ffffff;fill-opacity:1;fill-rule:nonzero;stroke:none"
         d="M 6988.2,5511.73 H 5855.41 v 174.81 H 6988.2 v -174.81" /><path
         id="path142"
         style="fill:#000000;fill-opacity:1;fill-rule:nonzero;stroke:none"
         d="m 5870.63,5526.96 h 1102.34 v 144.35 H 5870.63 Z M 6988.2,5496.5 H 5855.41 c -8.42,0 -15.23,6.82 -15.23,15.23 v 174.81 c 0,8.42 6.81,15.23 15.23,15.23 H 6988.2 c 8.42,0 15.23,-6.81 15.23,-15.23 v -174.81 c 0,-8.41 -6.81,-15.23 -15.23,-15.23" /><path
         id="path144"
         style="fill:#ffffff;fill-opacity:1;fill-rule:nonzero;stroke:none"
         d="m 5891.57,5162.13 h -692.45 v 174.82 h 692.45 v -174.82" /><path
         id="path146"
         style="fill:#000000;fill-opacity:1;fill-rule:nonzero;stroke:none"
         d="m 5214.35,5177.36 h 662 v 144.36 h -662 z m 677.22,-30.46 h -692.45 c -8.42,0 -15.23,6.81 -15.23,15.23 v 174.82 c 0,8.42 6.81,15.23 15.23,15.23 h 692.45 c 8.42,0 15.24,-6.81 15.24,-15.23 v -174.82 c 0,-8.42 -6.82,-15.23 -15.24,-15.23" /><path
         id="path148"
         style="fill:#ffffff;fill-opacity:1;fill-rule:nonzero;stroke:none"
         d="m 6264.82,5405.94 c 0,0 50.82,-982.27 728.91,-1226.43 v 1436.85 l -728.91,-210.42" /><path
         id="path150"
         style="fill:#ffffff;fill-opacity:1;fill-rule:nonzero;stroke:none"
         d="M 6993.73,5616.36 V 4179.51 c 678.08,244.16 728.93,1226.43 728.93,1226.43 l -728.93,210.42" /><path
         id="path152"
         style="fill:#ffffff;fill-opacity:1;fill-rule:nonzero;stroke:none"
         d="m 6993.73,5616.36 -728.91,-210.42 c 0,0 50.82,-982.27 728.91,-1226.43 678.08,244.16 728.93,1226.43 728.93,1226.43 l -728.93,210.42" /><path
         id="path154"
         style="fill:#000000;fill-opacity:1;fill-rule:nonzero;stroke:none"
         d="m 6280.89,5394.72 c 8.88,-112.17 97.11,-972.67 712.84,-1199 615.99,226.44 704.01,1086.83 712.86,1199 l -712.86,205.78 z m 712.84,-1230.44 c -1.74,0 -3.5,0.3 -5.16,0.91 -679.75,244.76 -738.43,1230.04 -738.96,1239.96 -0.35,7.06 4.2,13.46 11,15.42 l 728.9,210.42 c 2.77,0.8 5.69,0.8 8.45,0 l 728.92,-210.42 c 6.79,-1.96 11.34,-8.36 10.99,-15.42 -0.52,-9.92 -59.24,-995.2 -738.97,-1239.96 -1.67,-0.61 -3.43,-0.91 -5.17,-0.91" /><path
         id="path156"
         style="fill:#ffffff;fill-opacity:1;fill-rule:nonzero;stroke:none"
         d="m 7314.16,4538.42 c -67.18,-85.03 -148.81,-159.91 -247.99,-214.77" /><path
         id="path158"
         style="fill:#000000;fill-opacity:1;fill-rule:nonzero;stroke:none"
         d="m 7066.19,4308.42 c -5.37,0 -10.56,2.84 -13.34,7.85 -4.08,7.36 -1.41,16.63 5.95,20.7 90.53,50.08 172.42,121.03 243.41,210.9 5.23,6.58 14.8,7.7 21.39,2.51 6.61,-5.22 7.72,-14.79 2.51,-21.4 -73.5,-93.05 -158.48,-166.62 -252.56,-218.66 -2.34,-1.29 -4.86,-1.9 -7.36,-1.9" /><path
         id="path160"
         style="fill:#ffffff;fill-opacity:1;fill-rule:nonzero;stroke:none"
         d="m 7469.17,4800.45 c -28.27,-63.83 -61.84,-127.41 -101.47,-187.7" /><path
         id="path162"
         style="fill:#000000;fill-opacity:1;fill-rule:nonzero;stroke:none"
         d="m 7367.69,4597.52 c -2.88,0 -5.78,0.81 -8.35,2.5 -7.04,4.63 -8.98,14.07 -4.37,21.09 36.84,56.04 70.58,118.46 100.27,185.51 3.41,7.68 12.43,11.14 20.1,7.75 7.69,-3.41 11.15,-12.4 7.75,-20.09 -30.37,-68.58 -64.92,-132.46 -102.66,-189.89 -2.93,-4.46 -7.79,-6.87 -12.74,-6.87" /><path
         id="path164"
         style="fill:#ffffff;fill-opacity:1;fill-rule:nonzero;stroke:none"
         d="M 6993.73,5486.46 V 4596.47" /><path
         id="path166"
         style="fill:#000000;fill-opacity:1;fill-rule:nonzero;stroke:none"
         d="m 6993.73,4581.24 c -8.42,0 -15.22,6.81 -15.22,15.23 v 889.99 c 0,8.41 6.8,15.22 15.22,15.22 8.42,0 15.23,-6.81 15.23,-15.22 v -889.99 c 0,-8.42 -6.81,-15.23 -15.23,-15.23" /><path
         id="path168"
         style="fill:#4ee2ff;fill-opacity:1;fill-rule:nonzero;stroke:none"
         d="m 6092.85,3999.99 c 0,-1155.87 -936.98,-2092.87 -2092.86,-2092.87 -1155.87,0 -2092.85,937 -2092.85,2092.87 0,1155.85 936.98,2092.84 2092.85,2092.84 1155.88,0 2092.86,-936.99 2092.86,-2092.84" /><path
         id="path170"
         style="fill:#000000;fill-opacity:1;fill-rule:nonzero;stroke:none"
         d="m 3999.99,6077.6 c -1145.61,0 -2077.62,-932.01 -2077.62,-2077.61 0,-1145.62 932.01,-2077.64 2077.62,-2077.64 1145.62,0 2077.63,932.02 2077.63,2077.64 0,1145.6 -932.01,2077.61 -2077.63,2077.61 z m 0,-4185.71 c -1162.4,0 -2108.08,945.7 -2108.08,2108.1 0,1162.39 945.68,2108.07 2108.08,2108.07 1162.41,0 2108.09,-945.68 2108.09,-2108.07 0,-1162.4 -945.68,-2108.1 -2108.09,-2108.1" /><path
         id="path172"
         style="fill:#44c9e6;fill-opacity:1;fill-rule:nonzero;stroke:none"
         d="m 5915.25,4244.56 v -200.1 h 177.04 c -1.4,67.52 -6.11,134.26 -13.74,200.1 h -163.3" /><path
         id="path174"
         style="fill:#44c9e6;fill-opacity:1;fill-rule:nonzero;stroke:none"
         d="m 5915.25,3675.23 h 152.48 c 10.26,65.73 17.34,132.5 21.32,200.09 h -173.8 v -200.09" /><path
         id="path176"
         style="fill:#44c9e6;fill-opacity:1;fill-rule:nonzero;stroke:none"
         d="m 2018.74,4244.56 h -97.31 c -7.65,-65.84 -12.33,-132.58 -13.73,-200.1 h 111.04 v 200.1" /><path
         id="path178"
         style="fill:#d1d3d4;fill-opacity:1;fill-rule:nonzero;stroke:none"
         d="m 5425.87,2615.37 -0.33,1.31 59.36,219.39 c 0,70.66 -57.77,128.46 -128.4,128.46 H 2643.48 c -70.67,0 -128.43,-57.8 -128.43,-128.46 l 59.4,-220.7 h -0.06 l -31.61,-117.45 c 87.81,-85.21 183,-162.88 284.65,-231.71 h 2345 c 101.68,68.89 196.93,146.61 284.77,231.83 l -31.4,117.33 h 0.07" /><path
         id="path180"
         style="fill:#000000;fill-opacity:1;fill-rule:nonzero;stroke:none"
         d="m 2832.11,2281.45 h 2335.64 c 96.15,65.46 187.74,139.88 272.43,221.31 l -29.09,108.69 c -0.69,2.58 -0.96,6.63 -0.25,9.21 l 58.82,217.38 c -1.06,61.53 -51.41,111.27 -113.16,111.27 H 2643.48 c -61.76,0 -112.15,-49.75 -113.19,-111.29 l 58.87,-218.69 c 0.69,-2.59 0.69,-5.33 0,-7.91 l -29.33,-108.8 c 84.57,-81.38 176.12,-155.75 272.28,-221.17 z m 2340.32,-30.46 h -2345 c -3.05,0 -6.02,0.91 -8.54,2.61 -101.48,68.71 -197.95,147.23 -286.71,233.4 -3.97,3.84 -5.53,9.55 -4.1,14.87 l 30.54,113.5 -58.28,216.75 c -0.34,1.28 -0.52,2.62 -0.52,3.95 0,79.23 64.44,143.7 143.66,143.7 H 5356.5 c 79.19,0 143.64,-64.47 143.64,-143.7 0,-1.33 -0.18,-2.67 -0.54,-3.98 l -58.3,-215.44 30.6,-114.69 c 1.44,-5.32 -0.14,-11 -4.1,-14.87 -88.85,-86.16 -185.36,-164.75 -286.82,-233.49 -2.52,-1.7 -5.49,-2.61 -8.55,-2.61" /><path
         id="path182"
         style="fill:#000000;fill-opacity:1;fill-rule:nonzero;stroke:none"
         d="m 3999.99,6077.6 c -1145.61,0 -2077.62,-932.01 -2077.62,-2077.61 0,-1145.62 932.01,-2077.64 2077.62,-2077.64 1145.62,0 2077.63,932.02 2077.63,2077.64 0,1145.6 -932.01,2077.61 -2077.63,2077.61 z m 0,-4185.71 c -1162.4,0 -2108.08,945.7 -2108.08,2108.1 0,1162.39 945.68,2108.07 2108.08,2108.07 1162.41,0 2108.09,-945.68 2108.09,-2108.07 0,-1162.4 -945.68,-2108.1 -2108.09,-2108.1" /><path
         id="path184"
         style="fill:#44c9e6;fill-opacity:1;fill-rule:nonzero;stroke:none"
         d="m 5758.12,4413.7 h -200.06 v 200.05 h 200.06 V 4413.7" /><path
         id="path186"
         style="fill:#44c9e6;fill-opacity:1;fill-rule:nonzero;stroke:none"
         d="m 5758.12,4044.46 h -200.06 v 200.1 h 200.06 v -200.1" /><path
         id="path188"
         style="fill:#44c9e6;fill-opacity:1;fill-rule:nonzero;stroke:none"
         d="m 5758.12,3675.23 h -200.06 v 200.09 h 200.06 v -200.09" /><path
         id="path190"
         style="fill:#44c9e6;fill-opacity:1;fill-rule:nonzero;stroke:none"
         d="m 5758.12,3306.01 h -200.06 v 200.09 h 200.06 v -200.09" /><path
         id="path192"
         style="fill:#44c9e6;fill-opacity:1;fill-rule:nonzero;stroke:none"
         d="m 3719.37,5665.83 h -200.08 v 200.1 h 200.08 v -200.1" /><path
         id="path194"
         style="fill:#44c9e6;fill-opacity:1;fill-rule:nonzero;stroke:none"
         d="m 4076.56,5665.83 h -200.08 v 200.1 h 200.08 v -200.1" /><path
         id="path196"
         style="fill:#44c9e6;fill-opacity:1;fill-rule:nonzero;stroke:none"
         d="m 5384.61,4413.7 h -200.07 v 200.05 h 200.07 V 4413.7" /><path
         id="path198"
         style="fill:#44c9e6;fill-opacity:1;fill-rule:nonzero;stroke:none"
         d="m 5384.61,4044.46 h -200.07 v 200.1 h 200.07 v -200.1" /><path
         id="path200"
         style="fill:#44c9e6;fill-opacity:1;fill-rule:nonzero;stroke:none"
         d="m 2392.29,4044.46 h -200.08 v 200.1 h 200.08 v -200.1" /><path
         id="path202"
         style="fill:#44c9e6;fill-opacity:1;fill-rule:nonzero;stroke:none"
         d="m 2392.29,3675.23 h -200.08 v 200.09 h 200.08 v -200.09" /><path
         id="path204"
         style="fill:#44c9e6;fill-opacity:1;fill-rule:nonzero;stroke:none"
         d="m 2392.29,4413.7 h -200.08 v 200.05 h 200.08 V 4413.7" /><path
         id="path206"
         style="fill:#44c9e6;fill-opacity:1;fill-rule:nonzero;stroke:none"
         d="m 2392.29,3306.01 h -200.08 v 200.09 h 200.08 v -200.09" /><path
         id="path208"
         style="fill:#44c9e6;fill-opacity:1;fill-rule:nonzero;stroke:none"
         d="M 2749.47,4044.46 H 2549.4 v 200.1 h 200.07 v -200.1" /><path
         id="path210"
         style="fill:#44c9e6;fill-opacity:1;fill-rule:nonzero;stroke:none"
         d="M 2749.47,3675.23 H 2549.4 v 200.09 h 200.07 v -200.09" /><path
         id="path212"
         style="fill:#44c9e6;fill-opacity:1;fill-rule:nonzero;stroke:none"
         d="m 5384.61,3675.23 h -200.07 v 200.09 h 200.07 v -200.09" /><path
         id="path214"
         style="fill:#44c9e6;fill-opacity:1;fill-rule:nonzero;stroke:none"
         d="m 5384.61,3306.01 h -200.07 v 200.09 h 200.07 v -200.09" /><path
         id="path216"
         style="fill:#d1d3d4;fill-opacity:1;fill-rule:nonzero;stroke:none"
         d="m 5484.9,5163.9 c 0,-70.61 -57.77,-128.43 -128.4,-128.43 H 2643.48 c -70.67,0 -128.43,57.82 -128.43,128.43 l 59.4,220.77 -59.4,220.7 c 0,70.62 57.76,128.43 128.43,128.43 H 5356.5 c 70.63,0 128.4,-57.81 128.4,-128.43 l -59.36,-219.42 59.36,-222.05" /><path
         id="path218"
         style="fill:#000000;fill-opacity:1;fill-rule:nonzero;stroke:none"
         d="m 2530.29,5161.95 c 1.04,-61.53 51.43,-111.26 113.19,-111.26 H 5356.5 c 61.76,0 112.12,49.73 113.16,111.28 l -58.83,220.05 c -0.7,2.59 -0.7,5.31 0.01,7.9 l 58.82,217.41 c -1.06,61.52 -51.41,111.24 -113.16,111.24 H 2643.48 c -61.76,0 -112.15,-49.73 -113.19,-111.26 l 58.87,-218.68 c 0.69,-2.59 0.69,-5.33 0,-7.92 z M 5356.5,5020.24 H 2643.48 c -79.22,0 -143.66,64.44 -143.66,143.66 0,1.34 0.18,2.66 0.52,3.96 l 58.34,216.81 -58.34,216.74 c -0.34,1.3 -0.52,2.62 -0.52,3.96 0,79.22 64.44,143.66 143.66,143.66 H 5356.5 c 79.19,0 143.64,-64.44 143.64,-143.66 0,-1.34 -0.18,-2.68 -0.54,-3.97 l -58.3,-215.48 58.31,-218.09 c 0.35,-1.28 0.53,-2.61 0.53,-3.93 0,-79.22 -64.45,-143.66 -143.64,-143.66" /><path
         id="path220"
         style="fill:#b8b9ba;fill-opacity:1;fill-rule:nonzero;stroke:none"
         d="m 2574.45,5384.67 -59.4,-220.77 c 0,-70.61 57.76,-128.43 128.43,-128.43 H 5356.5 c 70.63,0 128.4,57.82 128.4,128.43 l -59.03,220.77 H 2574.45" /><path
         id="path222"
         style="fill:#000000;fill-opacity:1;fill-rule:nonzero;stroke:none"
         d="m 2972.56,5369.44 h -398.11 c -8.42,0 -15.23,6.81 -15.23,15.23 0,8.42 6.81,15.23 15.23,15.23 h 398.11 c 8.42,0 15.23,-6.81 15.23,-15.23 0,-8.42 -6.81,-15.23 -15.23,-15.23" /><path
         id="path224"
         style="fill:#000000;fill-opacity:1;fill-rule:nonzero;stroke:none"
         d="M 5425.5,5369.44 H 3545.64 c -8.41,0 -15.22,6.81 -15.22,15.23 0,8.42 6.81,15.23 15.22,15.23 H 5425.5 c 8.41,0 15.22,-6.81 15.22,-15.23 0,-8.42 -6.81,-15.23 -15.22,-15.23" /><path
         id="path226"
         style="fill:#ff8c7c;fill-opacity:1;fill-rule:nonzero;stroke:none"
         d="m 3209.89,5383.91 c 0,-45.8 -37.14,-82.91 -82.96,-82.91 -45.79,0 -82.97,37.11 -82.97,82.91 0,45.81 37.18,82.97 82.97,82.97 45.82,0 82.96,-37.16 82.96,-82.97" /><path
         id="path228"
         style="fill:#000000;fill-opacity:1;fill-rule:nonzero;stroke:none"
         d="m 3126.93,5451.65 c -37.35,0 -67.74,-30.38 -67.74,-67.74 0,-37.31 30.39,-67.68 67.74,-67.68 37.35,0 67.73,30.37 67.73,67.68 0,37.36 -30.38,67.74 -67.73,67.74 z m 0,-165.88 c -54.15,0 -98.19,44.02 -98.19,98.14 0,54.15 44.04,98.2 98.19,98.2 54.13,0 98.19,-44.05 98.19,-98.2 0,-54.12 -44.06,-98.14 -98.19,-98.14" /><path
         id="path230"
         style="fill:#ffec87;fill-opacity:1;fill-rule:nonzero;stroke:none"
         d="m 3465.07,5383.91 c 0,-45.8 -37.14,-82.91 -82.96,-82.91 -45.81,0 -82.94,37.11 -82.94,82.91 0,45.81 37.13,82.97 82.94,82.97 45.82,0 82.96,-37.16 82.96,-82.97" /><path
         id="path232"
         style="fill:#000000;fill-opacity:1;fill-rule:nonzero;stroke:none"
         d="m 3382.11,5451.65 c -37.33,0 -67.71,-30.38 -67.71,-67.74 0,-37.31 30.38,-67.68 67.71,-67.68 37.35,0 67.73,30.37 67.73,67.68 0,37.36 -30.38,67.74 -67.73,67.74 z m 0,-165.88 c -54.13,0 -98.16,44.02 -98.16,98.14 0,54.15 44.03,98.2 98.16,98.2 54.14,0 98.19,-44.05 98.19,-98.2 0,-54.12 -44.05,-98.14 -98.19,-98.14" /><path
         id="path234"
         style="fill:#949696;fill-opacity:1;fill-rule:nonzero;stroke:none"
         d="m 5203.99,4810.73 h -2408 v 224.74 h 2408 v -224.74" /><path
         id="path236"
         style="fill:#000000;fill-opacity:1;fill-rule:nonzero;stroke:none"
         d="m 2811.22,4825.95 h 2377.55 v 194.29 H 2811.22 Z m 2392.77,-30.45 h -2408 c -8.42,0 -15.23,6.81 -15.23,15.23 v 224.74 c 0,8.42 6.81,15.22 15.23,15.22 h 2408 c 8.42,0 15.23,-6.8 15.23,-15.22 v -224.74 c 0,-8.42 -6.81,-15.23 -15.23,-15.23" /><path
         id="path238"
         style="fill:#000000;fill-opacity:1;fill-rule:nonzero;stroke:none"
         d="m 2530.29,5161.95 c 1.04,-61.53 51.43,-111.26 113.19,-111.26 H 5356.5 c 61.76,0 112.12,49.73 113.16,111.28 l -58.83,220.05 c -0.7,2.59 -0.7,5.31 0.01,7.9 l 58.82,217.41 c -1.06,61.52 -51.41,111.24 -113.16,111.24 H 2643.48 c -61.76,0 -112.15,-49.73 -113.19,-111.26 l 58.87,-218.68 c 0.69,-2.59 0.69,-5.33 0,-7.92 z M 5356.5,5020.24 H 2643.48 c -79.22,0 -143.66,64.44 -143.66,143.66 0,1.34 0.18,2.66 0.52,3.96 l 58.34,216.81 -58.34,216.74 c -0.34,1.3 -0.52,2.62 -0.52,3.96 0,79.22 64.44,143.66 143.66,143.66 H 5356.5 c 79.19,0 143.64,-64.44 143.64,-143.66 0,-1.34 -0.18,-2.68 -0.54,-3.97 l -58.3,-215.48 58.31,-218.09 c 0.35,-1.28 0.53,-2.61 0.53,-3.93 0,-79.22 -64.45,-143.66 -143.64,-143.66" /><path
         id="path240"
         style="fill:#d1d3d4;fill-opacity:1;fill-rule:nonzero;stroke:none"
         d="m 5484.9,4240.81 c 0,-70.64 -57.77,-128.42 -128.4,-128.42 H 2643.48 c -70.67,0 -128.43,57.78 -128.43,128.42 l 59.4,220.76 -59.4,220.71 c 0,70.63 57.76,128.45 128.43,128.45 H 5356.5 c 70.63,0 128.4,-57.82 128.4,-128.45 l -59.36,-219.43 59.36,-222.04" /><path
         id="path242"
         style="fill:#000000;fill-opacity:1;fill-rule:nonzero;stroke:none"
         d="m 2530.29,4238.86 c 1.04,-61.52 51.43,-111.24 113.19,-111.24 H 5356.5 c 61.76,0 112.12,49.73 113.16,111.26 l -58.83,220.03 c -0.7,2.6 -0.7,5.32 0.01,7.91 l 58.82,217.42 c -1.06,61.53 -51.41,111.26 -113.16,111.26 H 2643.48 c -61.76,0 -112.15,-49.73 -113.19,-111.27 l 58.87,-218.71 c 0.69,-2.59 0.69,-5.32 0,-7.91 z M 5356.5,4097.16 H 2643.48 c -79.22,0 -143.66,64.44 -143.66,143.65 0,1.34 0.18,2.66 0.52,3.96 l 58.34,216.8 -58.34,216.75 c -0.34,1.29 -0.52,2.62 -0.52,3.96 0,79.22 64.44,143.67 143.66,143.67 H 5356.5 c 79.19,0 143.64,-64.45 143.64,-143.67 0,-1.34 -0.18,-2.68 -0.54,-3.97 l -58.3,-215.49 58.31,-218.07 c 0.35,-1.29 0.53,-2.62 0.53,-3.94 0,-79.21 -64.45,-143.65 -143.64,-143.65" /><path
         id="path244"
         style="fill:#b8b9ba;fill-opacity:1;fill-rule:nonzero;stroke:none"
         d="m 2574.45,4461.57 -59.4,-220.76 c 0,-70.64 57.76,-128.42 128.43,-128.42 H 5356.5 c 70.63,0 128.4,57.78 128.4,128.42 l -59.03,220.76 H 2574.45" /><path
         id="path246"
         style="fill:#000000;fill-opacity:1;fill-rule:nonzero;stroke:none"
         d="m 2972.56,4446.34 h -398.11 c -8.42,0 -15.23,6.81 -15.23,15.23 0,8.42 6.81,15.23 15.23,15.23 h 398.11 c 8.42,0 15.23,-6.81 15.23,-15.23 0,-8.42 -6.81,-15.23 -15.23,-15.23" /><path
         id="path248"
         style="fill:#000000;fill-opacity:1;fill-rule:nonzero;stroke:none"
         d="M 5425.5,4446.34 H 3545.64 c -8.41,0 -15.22,6.81 -15.22,15.23 0,8.42 6.81,15.23 15.22,15.23 H 5425.5 c 8.41,0 15.22,-6.81 15.22,-15.23 0,-8.42 -6.81,-15.23 -15.22,-15.23" /><path
         id="path250"
         style="fill:#ff8c7c;fill-opacity:1;fill-rule:nonzero;stroke:none"
         d="m 3209.89,4460.83 c 0,-45.84 -37.14,-82.93 -82.96,-82.93 -45.79,0 -82.97,37.09 -82.97,82.93 0,45.81 37.18,82.96 82.97,82.96 45.82,0 82.96,-37.15 82.96,-82.96" /><path
         id="path252"
         style="fill:#000000;fill-opacity:1;fill-rule:nonzero;stroke:none"
         d="m 3126.93,4528.56 c -37.35,0 -67.74,-30.38 -67.74,-67.73 0,-37.33 30.39,-67.71 67.74,-67.71 37.35,0 67.73,30.38 67.73,67.71 0,37.35 -30.38,67.73 -67.73,67.73 z m 0,-165.89 c -54.15,0 -98.19,44.03 -98.19,98.16 0,54.14 44.04,98.19 98.19,98.19 54.13,0 98.19,-44.05 98.19,-98.19 0,-54.13 -44.06,-98.16 -98.19,-98.16" /><path
         id="path254"
         style="fill:#ffec87;fill-opacity:1;fill-rule:nonzero;stroke:none"
         d="m 3465.07,4460.83 c 0,-45.84 -37.14,-82.93 -82.96,-82.93 -45.81,0 -82.94,37.09 -82.94,82.93 0,45.81 37.13,82.96 82.94,82.96 45.82,0 82.96,-37.15 82.96,-82.96" /><path
         id="path256"
         style="fill:#000000;fill-opacity:1;fill-rule:nonzero;stroke:none"
         d="m 3382.11,4528.56 c -37.33,0 -67.71,-30.38 -67.71,-67.73 0,-37.33 30.38,-67.71 67.71,-67.71 37.35,0 67.73,30.38 67.73,67.71 0,37.35 -30.38,67.73 -67.73,67.73 z m 0,-165.89 c -54.13,0 -98.16,44.03 -98.16,98.16 0,54.14 44.03,98.19 98.16,98.19 54.14,0 98.19,-44.05 98.19,-98.19 0,-54.13 -44.05,-98.16 -98.19,-98.16" /><path
         id="path258"
         style="fill:#949696;fill-opacity:1;fill-rule:nonzero;stroke:none"
         d="m 5203.99,3887.61 h -2408 v 224.78 h 2408 v -224.78" /><path
         id="path260"
         style="fill:#000000;fill-opacity:1;fill-rule:nonzero;stroke:none"
         d="m 2811.22,3902.83 h 2377.55 v 194.33 H 2811.22 Z m 2392.77,-30.45 h -2408 c -8.42,0 -15.23,6.81 -15.23,15.23 v 224.78 c 0,8.42 6.81,15.23 15.23,15.23 h 2408 c 8.42,0 15.23,-6.81 15.23,-15.23 v -224.78 c 0,-8.42 -6.81,-15.23 -15.23,-15.23" /><path
         id="path262"
         style="fill:#000000;fill-opacity:1;fill-rule:nonzero;stroke:none"
         d="m 2530.29,4238.86 c 1.04,-61.52 51.43,-111.24 113.19,-111.24 H 5356.5 c 61.76,0 112.12,49.73 113.16,111.26 l -58.83,220.03 c -0.7,2.6 -0.7,5.32 0.01,7.91 l 58.82,217.42 c -1.06,61.53 -51.41,111.26 -113.16,111.26 H 2643.48 c -61.76,0 -112.15,-49.73 -113.19,-111.27 l 58.87,-218.71 c 0.69,-2.59 0.69,-5.32 0,-7.91 z M 5356.5,4097.16 H 2643.48 c -79.22,0 -143.66,64.44 -143.66,143.65 0,1.34 0.18,2.66 0.52,3.96 l 58.34,216.8 -58.34,216.75 c -0.34,1.29 -0.52,2.62 -0.52,3.96 0,79.22 64.44,143.67 143.66,143.67 H 5356.5 c 79.19,0 143.64,-64.45 143.64,-143.67 0,-1.34 -0.18,-2.68 -0.54,-3.97 l -58.3,-215.49 58.31,-218.07 c 0.35,-1.29 0.53,-2.62 0.53,-3.94 0,-79.21 -64.45,-143.65 -143.64,-143.65" /><path
         id="path264"
         style="fill:#d1d3d4;fill-opacity:1;fill-rule:nonzero;stroke:none"
         d="m 5484.9,3317.71 c 0,-70.63 -57.77,-128.42 -128.4,-128.42 H 2643.48 c -70.67,0 -128.43,57.79 -128.43,128.42 l 59.4,220.79 -59.4,220.67 c 0,70.63 57.76,128.44 128.43,128.44 H 5356.5 c 70.63,0 128.4,-57.81 128.4,-128.44 l -59.36,-219.42 59.36,-222.04" /><path
         id="path266"
         style="fill:#000000;fill-opacity:1;fill-rule:nonzero;stroke:none"
         d="m 2530.29,3315.76 c 1.04,-61.52 51.43,-111.24 113.19,-111.24 H 5356.5 c 61.76,0 112.12,49.73 113.16,111.25 l -58.83,220.03 c -0.7,2.6 -0.7,5.32 0.01,7.91 l 58.82,217.42 c -1.06,61.54 -51.41,111.25 -113.16,111.25 H 2643.48 c -61.76,0 -112.15,-49.73 -113.19,-111.26 l 58.87,-218.67 c 0.69,-2.59 0.69,-5.32 0,-7.91 z M 5356.5,3174.06 H 2643.48 c -79.22,0 -143.66,64.44 -143.66,143.65 0,1.33 0.18,2.66 0.52,3.95 l 58.34,216.84 -58.34,216.71 c -0.34,1.3 -0.52,2.62 -0.52,3.96 0,79.23 64.44,143.66 143.66,143.66 H 5356.5 c 79.19,0 143.64,-64.43 143.64,-143.66 0,-1.34 -0.18,-2.68 -0.54,-3.96 l -58.3,-215.49 58.31,-218.07 c 0.35,-1.3 0.53,-2.62 0.53,-3.94 0,-79.21 -64.45,-143.65 -143.64,-143.65" /><path
         id="path268"
         style="fill:#b8b9ba;fill-opacity:1;fill-rule:nonzero;stroke:none"
         d="m 2574.45,3538.5 -59.4,-220.79 c 0,-70.63 57.76,-128.42 128.43,-128.42 H 5356.5 c 70.63,0 128.4,57.79 128.4,128.42 l -59.03,220.79 H 2574.45" /><path
         id="path270"
         style="fill:#000000;fill-opacity:1;fill-rule:nonzero;stroke:none"
         d="m 2972.56,3523.26 h -398.11 c -8.42,0 -15.23,6.82 -15.23,15.24 0,8.41 6.81,15.22 15.23,15.22 h 398.11 c 8.42,0 15.23,-6.81 15.23,-15.22 0,-8.42 -6.81,-15.24 -15.23,-15.24" /><path
         id="path272"
         style="fill:#000000;fill-opacity:1;fill-rule:nonzero;stroke:none"
         d="M 5425.5,3523.26 H 3545.64 c -8.41,0 -15.22,6.82 -15.22,15.24 0,8.41 6.81,15.22 15.22,15.22 H 5425.5 c 8.41,0 15.22,-6.81 15.22,-15.22 0,-8.42 -6.81,-15.24 -15.22,-15.24" /><path
         id="path274"
         style="fill:#ff8c7c;fill-opacity:1;fill-rule:nonzero;stroke:none"
         d="m 3209.89,3537.73 c 0,-45.84 -37.14,-82.94 -82.96,-82.94 -45.79,0 -82.97,37.1 -82.97,82.94 0,45.82 37.18,82.96 82.97,82.96 45.82,0 82.96,-37.14 82.96,-82.96" /><path
         id="path276"
         style="fill:#000000;fill-opacity:1;fill-rule:nonzero;stroke:none"
         d="m 3126.93,3605.46 c -37.35,0 -67.74,-30.38 -67.74,-67.73 0,-37.34 30.39,-67.71 67.74,-67.71 37.35,0 67.73,30.37 67.73,67.71 0,37.35 -30.38,67.73 -67.73,67.73 z m 0,-165.89 c -54.15,0 -98.19,44.03 -98.19,98.16 0,54.14 44.04,98.19 98.19,98.19 54.13,0 98.19,-44.05 98.19,-98.19 0,-54.13 -44.06,-98.16 -98.19,-98.16" /><path
         id="path278"
         style="fill:#ffec87;fill-opacity:1;fill-rule:nonzero;stroke:none"
         d="m 3465.07,3537.73 c 0,-45.84 -37.14,-82.94 -82.96,-82.94 -45.81,0 -82.94,37.1 -82.94,82.94 0,45.82 37.13,82.96 82.94,82.96 45.82,0 82.96,-37.14 82.96,-82.96" /><path
         id="path280"
         style="fill:#000000;fill-opacity:1;fill-rule:nonzero;stroke:none"
         d="m 3382.11,3605.46 c -37.33,0 -67.71,-30.38 -67.71,-67.73 0,-37.34 30.38,-67.71 67.71,-67.71 37.35,0 67.73,30.37 67.73,67.71 0,37.35 -30.38,67.73 -67.73,67.73 z m 0,-165.89 c -54.13,0 -98.16,44.03 -98.16,98.16 0,54.14 44.03,98.19 98.16,98.19 54.14,0 98.19,-44.05 98.19,-98.19 0,-54.13 -44.05,-98.16 -98.19,-98.16" /><path
         id="path282"
         style="fill:#949696;fill-opacity:1;fill-rule:nonzero;stroke:none"
         d="m 5203.99,2964.53 h -2408 v 224.76 h 2408 v -224.76" /><path
         id="path284"
         style="fill:#000000;fill-opacity:1;fill-rule:nonzero;stroke:none"
         d="m 2811.22,2979.77 h 2377.55 v 194.29 H 2811.22 Z m 2392.77,-30.46 h -2408 c -8.42,0 -15.23,6.8 -15.23,15.22 v 224.76 c 0,8.42 6.81,15.23 15.23,15.23 h 2408 c 8.42,0 15.23,-6.81 15.23,-15.23 v -224.76 c 0,-8.42 -6.81,-15.22 -15.23,-15.22" /><path
         id="path286"
         style="fill:#000000;fill-opacity:1;fill-rule:nonzero;stroke:none"
         d="m 2530.29,3315.76 c 1.04,-61.52 51.43,-111.24 113.19,-111.24 H 5356.5 c 61.76,0 112.12,49.73 113.16,111.25 l -58.83,220.03 c -0.7,2.6 -0.7,5.32 0.01,7.91 l 58.82,217.42 c -1.06,61.54 -51.41,111.25 -113.16,111.25 H 2643.48 c -61.76,0 -112.15,-49.73 -113.19,-111.26 l 58.87,-218.67 c 0.69,-2.59 0.69,-5.32 0,-7.91 z M 5356.5,3174.06 H 2643.48 c -79.22,0 -143.66,64.44 -143.66,143.65 0,1.33 0.18,2.66 0.52,3.95 l 58.34,216.84 -58.34,216.71 c -0.34,1.3 -0.52,2.62 -0.52,3.96 0,79.23 64.44,143.66 143.66,143.66 H 5356.5 c 79.19,0 143.64,-64.43 143.64,-143.66 0,-1.34 -0.18,-2.68 -0.54,-3.96 l -58.3,-215.49 58.31,-218.07 c 0.35,-1.3 0.53,-2.62 0.53,-3.94 0,-79.21 -64.45,-143.65 -143.64,-143.65" /><path
         id="path288"
         style="fill:#949696;fill-opacity:1;fill-rule:nonzero;stroke:none"
         d="m 2827.49,2266.21 c 334.48,-226.67 738.04,-359.09 1172.5,-359.09 434.46,0 838.03,132.42 1172.51,359.09 H 2827.49" /><path
         id="path290"
         style="fill:#000000;fill-opacity:1;fill-rule:nonzero;stroke:none"
         d="m 2878.19,2250.99 c 334.63,-215.17 721.39,-328.64 1121.8,-328.64 400.41,0 787.18,113.47 1121.81,328.64 z m 1121.8,-359.1 c -423.47,0 -831.86,125.07 -1181.03,361.71 -5.55,3.75 -7.99,10.68 -6.03,17.07 1.96,6.4 7.87,10.78 14.56,10.78 H 5172.5 c 6.69,0 12.59,-4.38 14.55,-10.78 1.96,-6.39 -0.47,-13.32 -6.01,-17.07 -349.18,-236.64 -757.57,-361.71 -1181.05,-361.71" /><path
         id="path292"
         style="fill:#b8b9ba;fill-opacity:1;fill-rule:nonzero;stroke:none"
         d="m 5172.43,2265.47 c 101.68,68.86 196.93,146.61 284.77,231.82 l -31.4,117.34 H 2574.39 l -31.61,-117.45 c 87.81,-85.25 183,-162.85 284.65,-231.71 h 2345" /><path
         id="path294"
         style="fill:#000000;fill-opacity:1;fill-rule:nonzero;stroke:none"
         d="m 2832.11,2281.45 h 2335.64 c 96.15,65.46 187.74,139.88 272.43,221.31 l -29.09,108.69 c -0.69,2.58 -0.96,6.63 -0.25,9.21 l 58.82,217.38 c -1.06,61.53 -51.41,111.27 -113.16,111.27 H 2643.48 c -61.76,0 -112.15,-49.75 -113.19,-111.29 l 58.87,-218.69 c 0.69,-2.59 0.69,-5.33 0,-7.91 l -29.33,-108.8 c 84.57,-81.38 176.12,-155.75 272.28,-221.17 z m 2340.32,-30.46 h -2345 c -3.05,0 -6.02,0.91 -8.54,2.61 -101.48,68.71 -197.95,147.23 -286.71,233.4 -3.97,3.84 -5.53,9.55 -4.1,14.87 l 30.54,113.5 -58.28,216.75 c -0.34,1.28 -0.52,2.62 -0.52,3.95 0,79.23 64.44,143.7 143.66,143.7 H 5356.5 c 79.19,0 143.64,-64.47 143.64,-143.7 0,-1.33 -0.18,-2.67 -0.54,-3.98 l -58.3,-215.44 30.6,-114.69 c 1.44,-5.32 -0.14,-11 -4.1,-14.87 -88.85,-86.16 -185.36,-164.75 -286.82,-233.49 -2.52,-1.7 -5.49,-2.61 -8.55,-2.61" /><path
         id="path296"
         style="fill:#000000;fill-opacity:1;fill-rule:nonzero;stroke:none"
         d="m 2972.56,2600.15 h -398.11 c -8.42,0 -15.23,6.8 -15.23,15.22 0,8.42 6.81,15.24 15.23,15.24 h 398.11 c 8.42,0 15.23,-6.82 15.23,-15.24 0,-8.42 -6.81,-15.22 -15.23,-15.22" /><path
         id="path298"
         style="fill:#000000;fill-opacity:1;fill-rule:nonzero;stroke:none"
         d="M 5425.5,2600.15 H 3545.64 c -8.41,0 -15.22,6.8 -15.22,15.22 0,8.42 6.81,15.24 15.22,15.24 H 5425.5 c 8.41,0 15.22,-6.82 15.22,-15.24 0,-8.42 -6.81,-15.22 -15.22,-15.22" /><path
         id="path300"
         style="fill:#ff8c7c;fill-opacity:1;fill-rule:nonzero;stroke:none"
         d="m 3209.89,2614.63 c 0,-45.8 -37.14,-82.89 -82.96,-82.89 -45.79,0 -82.97,37.09 -82.97,82.89 0,45.84 37.18,82.96 82.97,82.96 45.82,0 82.96,-37.12 82.96,-82.96" /><path
         id="path302"
         style="fill:#000000;fill-opacity:1;fill-rule:nonzero;stroke:none"
         d="m 3126.93,2682.35 c -37.35,0 -67.74,-30.36 -67.74,-67.72 0,-37.3 30.39,-67.67 67.74,-67.67 37.35,0 67.73,30.37 67.73,67.67 0,37.36 -30.38,67.72 -67.73,67.72 z m 0,-165.85 c -54.15,0 -98.19,44.03 -98.19,98.13 0,54.13 44.04,98.18 98.19,98.18 54.13,0 98.19,-44.05 98.19,-98.18 0,-54.1 -44.06,-98.13 -98.19,-98.13" /><path
         id="path304"
         style="fill:#ffec87;fill-opacity:1;fill-rule:nonzero;stroke:none"
         d="m 3465.07,2614.63 c 0,-45.8 -37.14,-82.89 -82.96,-82.89 -45.81,0 -82.94,37.09 -82.94,82.89 0,45.84 37.13,82.96 82.94,82.96 45.82,0 82.96,-37.12 82.96,-82.96" /><path
         id="path306"
         style="fill:#000000;fill-opacity:1;fill-rule:nonzero;stroke:none"
         d="m 3382.11,2682.35 c -37.33,0 -67.71,-30.36 -67.71,-67.72 0,-37.3 30.38,-67.67 67.71,-67.67 37.35,0 67.73,30.37 67.73,67.67 0,37.36 -30.38,67.72 -67.73,67.72 z m 0,-165.85 c -54.13,0 -98.16,44.03 -98.16,98.13 0,54.13 44.03,98.18 98.16,98.18 54.14,0 98.19,-44.05 98.19,-98.18 0,-54.1 -44.05,-98.13 -98.19,-98.13" /><path
         id="path308"
         style="fill:#ffec87;fill-opacity:1;fill-rule:nonzero;stroke:none"
         d="m 4242.2,3345.25 c 0,0 66.56,-1285.9 954.24,-1605.46 v 1880.9 L 4242.2,3345.25" /><path
         id="path310"
         style="fill:#e0ce76;fill-opacity:1;fill-rule:nonzero;stroke:none"
         d="m 5196.44,3620.69 v -1880.9 c 887.66,319.56 954.23,1605.46 954.23,1605.46 l -954.23,275.44" /><path
         id="path312"
         style="fill:#000000;fill-opacity:1;fill-rule:nonzero;stroke:none"
         d="m 4258.22,3334.02 c 9.92,-130.52 120.6,-1278.98 938.22,-1578.02 817.87,299.13 928.31,1447.51 938.2,1578.02 l -938.2,270.81 z m 938.22,-1609.46 c -1.74,0 -3.49,0.29 -5.16,0.89 -886.95,319.3 -963.63,1606.05 -964.3,1619.01 -0.36,7.06 4.19,13.46 10.99,15.42 l 954.25,275.44 c 2.76,0.8 5.68,0.8 8.44,0 l 954.23,-275.44 c 6.8,-1.96 11.35,-8.36 10.99,-15.42 -0.67,-12.96 -77.34,-1299.71 -964.28,-1619.01 -1.67,-0.6 -3.42,-0.89 -5.16,-0.89" /><path
         id="path314"
         style="fill:#ffec87;fill-opacity:1;fill-rule:nonzero;stroke:none"
         d="m 5615.9,2209.58 c -87.91,-111.3 -194.75,-209.33 -324.59,-281.13" /><path
         id="path316"
         style="fill:#000000;fill-opacity:1;fill-rule:nonzero;stroke:none"
         d="m 5291.32,1913.22 c -5.36,0 -10.56,2.82 -13.34,7.85 -4.07,7.38 -1.4,16.63 5.95,20.71 119.03,65.82 226.7,159.09 320.01,277.23 5.22,6.61 14.81,7.74 21.4,2.53 6.58,-5.2 7.72,-14.78 2.51,-21.38 -95.85,-121.36 -206.6,-217.25 -329.17,-285.03 -2.35,-1.28 -4.86,-1.91 -7.36,-1.91" /><path
         id="path318"
         style="fill:#ffec87;fill-opacity:1;fill-rule:nonzero;stroke:none"
         d="m 5818.85,2552.62 c -37.06,-83.59 -80.9,-166.78 -132.83,-245.75" /><path
         id="path320"
         style="fill:#000000;fill-opacity:1;fill-rule:nonzero;stroke:none"
         d="m 5686.01,2291.65 c -2.88,0 -5.78,0.8 -8.36,2.49 -7.02,4.65 -8.98,14.07 -4.36,21.09 48.17,73.26 92.45,155.2 131.64,243.57 3.39,7.67 12.39,11.15 20.09,7.73 7.69,-3.41 11.15,-12.4 7.75,-20.1 -39.86,-89.89 -84.95,-173.29 -134.02,-247.91 -2.93,-4.47 -7.79,-6.87 -12.74,-6.87" /><path
         id="path322"
         style="fill:#ffec87;fill-opacity:1;fill-rule:nonzero;stroke:none"
         d="m 5196.44,3450.61 v -1165" /><path
         id="path324"
         style="fill:#000000;fill-opacity:1;fill-rule:nonzero;stroke:none"
         d="m 5196.44,2270.38 c -8.42,0 -15.23,6.81 -15.23,15.23 v 1165 c 0,8.4 6.81,15.22 15.23,15.22 8.41,0 15.23,-6.82 15.23,-15.22 v -1165 c 0,-8.42 -6.82,-15.23 -15.23,-15.23" /><path
         id="path326"
         style="fill:#ffffff;fill-opacity:1;fill-rule:nonzero;stroke:none"
         d="m 364,3915.31 c 0,-73.67 59.785,-133.44 133.387,-133.44 h 726.563 c 73.68,0 133.45,59.77 133.45,133.44 v 112.33 H 364 v -112.33" /><path
         id="path328"
         style="fill:#000000;fill-opacity:1;fill-rule:nonzero;stroke:none"
         d="m 379.23,4012.41 v -97.1 c 0,-65.18 53,-118.21 118.157,-118.21 h 726.563 c 65.19,0 118.22,53.03 118.22,118.21 v 97.1 z m 844.72,-245.77 H 497.387 c -81.942,0 -148.614,66.7 -148.614,148.67 v 112.33 c 0,8.41 6.809,15.23 15.227,15.23 h 993.4 c 8.42,0 15.23,-6.82 15.23,-15.23 v -112.33 c 0,-81.97 -66.7,-148.67 -148.68,-148.67" /><path
         id="path330"
         style="fill:#ffffff;fill-opacity:1;fill-rule:nonzero;stroke:none"
         d="m 1357.4,4651.52 c 0,73.71 -59.77,133.45 -133.45,133.45 H 497.387 C 423.785,4784.97 364,4725.23 364,4651.52 v -102.55 h 993.4 v 102.55" /><path
         id="path332"
         style="fill:#000000;fill-opacity:1;fill-rule:nonzero;stroke:none"
         d="m 379.23,4564.19 h 962.94 v 87.33 c 0,65.18 -53.03,118.22 -118.22,118.22 H 497.387 c -65.157,0 -118.157,-53.04 -118.157,-118.22 z m 978.17,-30.45 H 364 c -8.418,0 -15.227,6.81 -15.227,15.23 v 102.55 c 0,81.98 66.672,148.68 148.614,148.68 h 726.563 c 81.98,0 148.68,-66.7 148.68,-148.68 v -102.55 c 0,-8.42 -6.81,-15.23 -15.23,-15.23" /><path
         id="path334"
         style="fill:#ffffff;fill-opacity:1;fill-rule:nonzero;stroke:none"
         d="m 364,4548.97 v -521.33 h 993.4 v 521.33 H 364" /><path
         id="path336"
         style="fill:#000000;fill-opacity:1;fill-rule:nonzero;stroke:none"
         d="m 379.23,4042.87 h 962.94 v 490.87 H 379.23 Z m 978.17,-30.46 H 364 c -8.418,0 -15.227,6.81 -15.227,15.23 v 521.33 c 0,8.41 6.809,15.22 15.227,15.22 h 993.4 c 8.42,0 15.23,-6.81 15.23,-15.22 v -521.33 c 0,-8.42 -6.81,-15.23 -15.23,-15.23" /><path
         id="path338"
         style="fill:#000000;fill-opacity:1;fill-rule:nonzero;stroke:none"
         d="m 529.418,4800.2 h 662.522 v 193.64 c 0,163.55 -133.04,296.6 -296.573,296.6 h -69.289 c -163.574,0 -296.66,-133.05 -296.66,-296.6 z m 677.752,-30.46 H 514.188 c -8.418,0 -15.227,6.81 -15.227,15.23 v 208.87 c 0,180.33 146.742,327.06 327.117,327.06 h 69.289 c 180.323,0 327.033,-146.73 327.033,-327.06 v -208.87 c 0,-8.42 -6.81,-15.23 -15.23,-15.23" /><path
         id="path340"
         style="fill:#ffffff;fill-opacity:1;fill-rule:nonzero;stroke:none"
         d="m 979.285,4338.13 c 0,65.51 -53.117,118.57 -118.582,118.57 -65.469,0 -118.574,-53.06 -118.574,-118.57 0,-46.74 27.172,-87.09 66.492,-106.38 v -119.73 h 104.09 v 119.73 c 39.394,19.29 66.574,59.64 66.574,106.38" /><path
         id="path342"
         style="fill:#000000;fill-opacity:1;fill-rule:nonzero;stroke:none"
         d="m 823.848,4127.25 h 73.632 v 104.5 c 0,5.82 3.317,11.13 8.536,13.68 35.797,17.54 58.047,53.05 58.047,92.7 0,56.99 -46.372,103.34 -103.36,103.34 -56.988,0 -103.344,-46.35 -103.344,-103.34 0,-39.65 22.215,-75.16 57.969,-92.71 5.219,-2.56 8.52,-7.85 8.52,-13.67 z m 88.863,-30.46 h -104.09 c -8.418,0 -15.226,6.81 -15.226,15.23 v 110.62 c -41.254,23.94 -66.497,67.36 -66.497,115.49 0,73.78 60.028,133.8 133.805,133.8 73.793,0 133.813,-60.02 133.813,-133.8 0,-48.14 -25.278,-91.56 -66.578,-115.51 v -110.6 c 0,-8.42 -6.809,-15.23 -15.227,-15.23" /><path
         id="path344"
         style="fill:#000000;fill-opacity:1;fill-rule:nonzero;stroke:none"
         d="m 1934.74,1778.21 h 350.59 c -2.52,147.08 -41.44,291.88 -113,420.22 h -301.3 c 40.36,-129.08 62.28,-273.58 63.71,-420.22 z m 365.95,-30.46 h -381.11 c -8.41,0 -15.22,6.82 -15.22,15.24 0,156.27 -23.75,310.43 -68.7,445.88 -1.53,4.64 -0.75,9.72 2.11,13.71 2.86,3.95 7.45,6.31 12.35,6.31 h 331.11 c 5.46,0 10.51,-2.95 13.21,-7.68 79.48,-139.26 121.48,-297.69 121.48,-458.22 0,-8.42 -6.81,-15.24 -15.23,-15.24" /><path
         id="path346"
         style="fill:#000000;fill-opacity:1;fill-rule:nonzero;stroke:none"
         d="m 1861.05,2228.89 h 293.49 c -131.92,215.96 -348.7,364.68 -592.75,412.66 124.35,-70.16 231.75,-215.32 299.26,-412.66 z m 320.18,-30.46 h -331.11 c -6.56,0 -12.39,4.2 -14.46,10.44 -92.01,277.17 -262.69,449.39 -445.45,449.39 -8.42,0 -15.23,6.82 -15.23,15.24 0,8.41 6.81,15.22 15.23,15.22 331.45,0 639.6,-179.14 804.23,-467.51 2.69,-4.73 2.68,-10.5 -0.04,-15.19 -2.73,-4.7 -7.75,-7.59 -13.17,-7.59" /><path
         id="path348"
         style="fill:#000000;fill-opacity:1;fill-rule:nonzero;stroke:none"
         d="m 1391.09,2658.26 c -8.4,0 -15.38,6.82 -15.38,15.24 0,8.41 6.66,15.22 15.08,15.22 h 0.3 c 8.42,0 15.23,-6.81 15.23,-15.22 0,-8.42 -6.81,-15.24 -15.23,-15.24" /><path
         id="path350"
         style="fill:#000000;fill-opacity:1;fill-rule:nonzero;stroke:none"
         d="m 1861.06,1297.08 c -67.52,-197.37 -174.92,-342.49 -299.27,-412.689 244.07,47.98 460.86,196.689 592.75,412.689 z M 1390.21,837.219 c -8.42,0 -15.23,6.812 -15.23,15.23 0,8.422 6.81,15.231 15.23,15.231 182.77,0 353.46,172.21 445.45,449.42 2.07,6.25 7.9,10.44 14.46,10.44 h 331.11 c 5.42,0 10.44,-2.88 13.17,-7.58 2.72,-4.71 2.73,-10.48 0.04,-15.2 -164.6,-288.39 -472.77,-467.541 -804.23,-467.541" /><path
         id="path352"
         style="fill:#000000;fill-opacity:1;fill-rule:nonzero;stroke:none"
         d="m 1871.03,1327.54 h 301.3 c 71.56,128.31 110.48,273.08 113,420.21 h -350.59 c -1.43,-146.66 -23.33,-291.18 -63.71,-420.21 z m 310.2,-30.46 h -331.11 c -4.9,0 -9.49,2.35 -12.35,6.31 -2.86,3.98 -3.64,9.07 -2.11,13.71 44.95,135.39 68.7,289.55 68.7,445.89 0,8.42 6.81,15.22 15.22,15.22 h 381.11 c 8.42,0 15.23,-6.8 15.23,-15.22 0,-160.59 -42,-319.03 -121.48,-458.23 -2.7,-4.73 -7.75,-7.68 -13.21,-7.68" /><path
         id="path354"
         style="fill:#000000;fill-opacity:1;fill-rule:nonzero;stroke:none"
         d="m 607.961,1327.54 h 301.324 c -40.375,129.09 -62.293,273.61 -63.722,420.21 H 494.988 c 2.516,-147.05 41.422,-291.8 112.973,-420.21 z m 322.234,-30.46 H 599.063 c -5.473,0 -10.512,2.95 -13.219,7.68 -79.449,139.28 -121.446,297.73 -121.446,458.23 0,8.42 6.813,15.22 15.231,15.22 h 381.09 c 8.418,0 15.226,-6.8 15.226,-15.22 0,-156.25 23.766,-310.44 68.707,-445.89 1.536,-4.64 0.758,-9.73 -2.113,-13.71 -2.851,-3.96 -7.445,-6.31 -12.344,-6.31" /><path
         id="path356"
         style="fill:#000000;fill-opacity:1;fill-rule:nonzero;stroke:none"
         d="M 625.742,2228.89 H 919.27 c 67.511,197.34 174.93,342.47 299.29,412.66 -244.044,-47.98 -460.845,-196.7 -592.818,-412.66 z m 304.453,-30.46 H 599.063 c -5.426,0 -10.442,2.89 -13.172,7.59 -2.727,4.69 -2.743,10.46 -0.047,15.19 164.687,288.37 472.896,467.51 804.336,467.51 8.42,0 15.23,-6.81 15.23,-15.22 0,-8.42 -6.81,-15.24 -15.23,-15.24 -182.79,0 -353.5,-172.22 -445.528,-449.39 -2.062,-6.24 -7.894,-10.44 -14.457,-10.44" /><path
         id="path358"
         style="fill:#000000;fill-opacity:1;fill-rule:nonzero;stroke:none"
         d="M 625.742,1297.08 C 757.688,1081.08 974.473,932.371 1218.56,884.391 1094.19,954.59 986.77,1099.71 919.27,1297.08 Z M 1390.18,837.219 c -331.49,0 -639.692,179.151 -804.336,467.541 -2.696,4.72 -2.68,10.49 0.047,15.2 2.73,4.7 7.746,7.58 13.172,7.58 h 331.132 c 6.563,0 12.395,-4.19 14.457,-10.44 92.018,-277.21 262.728,-449.42 445.528,-449.42 8.42,0 15.23,-6.809 15.23,-15.231 0,-8.418 -6.81,-15.23 -15.23,-15.23" /><path
         id="path360"
         style="fill:#000000;fill-opacity:1;fill-rule:nonzero;stroke:none"
         d="m 494.988,1778.21 h 350.575 c 1.429,146.58 23.347,291.08 63.722,420.22 H 607.961 C 536.41,2069.97 497.504,1925.21 494.988,1778.21 Z m 365.731,-30.46 h -381.09 c -8.418,0 -15.231,6.82 -15.231,15.24 0,160.43 41.997,318.88 121.426,458.22 2.727,4.73 7.766,7.68 13.239,7.68 h 331.132 c 4.899,0 9.493,-2.36 12.344,-6.31 2.871,-3.99 3.649,-9.07 2.113,-13.71 -44.941,-135.51 -68.707,-289.7 -68.707,-445.88 0,-8.42 -6.808,-15.24 -15.226,-15.24" /><path
         id="path362"
         style="fill:#000000;fill-opacity:1;fill-rule:nonzero;stroke:none"
         d="m 1391.09,837.219 c -8.4,0 -15.38,6.812 -15.38,15.23 0,8.422 6.66,15.231 15.08,15.231 h 0.3 c 8.42,0 15.23,-6.809 15.23,-15.231 0,-8.418 -6.81,-15.23 -15.23,-15.23" /><path
         id="path364"
         style="fill:#000000;fill-opacity:1;fill-rule:nonzero;stroke:none"
         d="m 1405.41,1778.21 h 498.87 c -1.46,147.05 -23.9,291.76 -65.21,420.22 h -433.66 z m 514.17,-30.46 h -529.4 c -8.42,0 -15.23,6.82 -15.23,15.24 v 450.67 c 0,8.42 6.81,15.23 15.23,15.23 h 459.94 c 6.56,0 12.38,-4.19 14.46,-10.44 45.95,-138.49 70.23,-295.98 70.23,-455.46 0,-8.42 -6.81,-15.24 -15.23,-15.24" /><path
         id="path366"
         style="fill:#000000;fill-opacity:1;fill-rule:nonzero;stroke:none"
         d="m 1405.41,1327.54 h 433.66 c 41.31,128.41 63.75,273.1 65.21,420.21 h -498.87 z m 444.71,-30.46 h -459.94 c -8.42,0 -15.23,6.82 -15.23,15.23 v 450.68 c 0,8.42 6.81,15.22 15.23,15.22 h 529.4 c 8.42,0 15.23,-6.8 15.23,-15.22 0,-159.55 -24.28,-317.04 -70.23,-455.47 -2.08,-6.24 -7.9,-10.44 -14.46,-10.44" /><path
         id="path368"
         style="fill:#000000;fill-opacity:1;fill-rule:nonzero;stroke:none"
         d="m 951.492,2228.89 h 423.458 v 428.99 c -172.57,-9.04 -332.64,-171.11 -423.458,-428.99 z m 438.688,-30.46 H 930.195 c -4.89,0 -9.488,2.35 -12.34,6.31 -2.871,3.98 -3.644,9.07 -2.113,13.71 96.298,290.09 278.088,470.27 474.438,470.27 8.42,0 15.23,-6.81 15.23,-15.22 v -459.84 c 0,-8.42 -6.81,-15.23 -15.23,-15.23" /><path
         id="path370"
         style="fill:#000000;fill-opacity:1;fill-rule:nonzero;stroke:none"
         d="m 876.02,1778.21 h 498.93 v 420.22 H 941.246 C 899.934,2069.91 877.477,1925.18 876.02,1778.21 Z m 514.16,-30.46 H 860.719 c -8.418,0 -15.231,6.82 -15.231,15.24 0,159.39 24.301,316.91 70.254,455.46 2.067,6.25 7.895,10.44 14.453,10.44 h 459.985 c 8.42,0 15.23,-6.81 15.23,-15.23 v -450.67 c 0,-8.42 -6.81,-15.24 -15.23,-15.24" /><path
         id="path372"
         style="fill:#000000;fill-opacity:1;fill-rule:nonzero;stroke:none"
         d="m 941.246,1327.54 h 433.704 v 420.21 H 876.02 c 1.457,-147.02 23.914,-291.74 65.226,-420.21 z m 448.934,-30.46 H 930.195 c -6.558,0 -12.386,4.2 -14.453,10.44 -45.953,138.49 -70.254,296.02 -70.254,455.47 0,8.42 6.813,15.22 15.231,15.22 h 529.461 c 8.42,0 15.23,-6.8 15.23,-15.22 v -450.68 c 0,-8.41 -6.81,-15.23 -15.23,-15.23" /><path
         id="path374"
         style="fill:#000000;fill-opacity:1;fill-rule:nonzero;stroke:none"
         d="M 1405.41,1297.08 V 868.07 c 172.57,9.039 332.62,171.11 423.41,429.01 z m -15.2,-459.861 c -8.42,0 -15.23,6.812 -15.23,15.23 l -0.03,459.861 c 0,4.05 1.61,7.91 4.46,10.77 2.86,2.86 6.73,4.46 10.77,4.46 h 459.94 c 4.89,0 9.49,-2.34 12.34,-6.31 2.87,-3.98 3.64,-9.06 2.12,-13.71 -96.27,-290.09 -278.03,-470.301 -474.37,-470.301" /><path
         id="path376"
         style="fill:#000000;fill-opacity:1;fill-rule:nonzero;stroke:none"
         d="m 1405.41,2228.89 h 423.41 c -90.8,257.88 -250.84,419.95 -423.38,428.99 z m 444.71,-30.46 h -459.94 c -8.42,0 -15.23,6.81 -15.23,15.23 v 459.84 c 0,8.41 6.81,15.22 15.23,15.22 196.34,0 378.12,-180.18 474.4,-470.27 1.52,-4.64 0.75,-9.73 -2.12,-13.71 -2.85,-3.96 -7.45,-6.31 -12.34,-6.31" /><path
         id="path378"
         style="fill:#000000;fill-opacity:1;fill-rule:nonzero;stroke:none"
         d="M 951.492,1297.08 C 1042.3,1039.18 1202.36,877.109 1374.95,868.07 v 429.01 z M 1390.18,837.219 c -196.37,0 -378.16,180.211 -474.438,470.301 -1.531,4.65 -0.758,9.73 2.113,13.71 2.852,3.97 7.45,6.31 12.34,6.31 h 459.985 c 8.42,0 15.23,-6.81 15.23,-15.23 V 852.449 c 0,-8.418 -6.81,-15.23 -15.23,-15.23" /><path
         id="path380"
         style="fill:#ffffff;fill-opacity:1;fill-rule:nonzero;stroke:none"
         d="m 1221.28,1441.64 c 0,0 41.22,-796.109 590.8,-993.999 V 1612.19 l -590.8,-170.55" /><path
         id="path382"
         style="fill:#ffffff;fill-opacity:1;fill-rule:nonzero;stroke:none"
         d="M 1812.08,1612.19 V 447.641 c 549.54,197.89 590.7,993.999 590.7,993.999 l -590.7,170.55" /><path
         id="path384"
         style="fill:#ffffff;fill-opacity:1;fill-rule:nonzero;stroke:none"
         d="m 1812.08,1612.19 -590.8,-170.55 c 0,0 41.22,-796.109 590.8,-993.999 549.54,197.89 590.7,993.999 590.7,993.999 l -590.7,170.55" /><path
         id="path386"
         style="fill:#000000;fill-opacity:1;fill-rule:nonzero;stroke:none"
         d="m 1237.36,1430.42 c 8.16,-99.37 82.22,-784.658 574.72,-966.568 492.73,182 566.5,867.198 574.62,966.568 l -574.62,165.91 z m 574.72,-998.01 c -1.74,0 -3.5,0.301 -5.17,0.891 -552.7,199.008 -600.43,999.469 -600.84,1007.559 -0.36,7.05 4.19,13.45 10.99,15.41 l 590.79,170.55 c 2.77,0.78 5.69,0.78 8.45,0 l 590.71,-170.55 c 6.79,-1.96 11.34,-8.36 10.99,-15.41 -0.42,-8.09 -48.08,-808.551 -600.76,-1007.559 -1.67,-0.59 -3.42,-0.891 -5.16,-0.891" /><path
         id="path388"
         style="fill:#ffffff;fill-opacity:1;fill-rule:nonzero;stroke:none"
         d="M 2071.77,738.559 C 2017.3,669.621 1951.14,608.941 1870.78,564.469" /><path
         id="path390"
         style="fill:#000000;fill-opacity:1;fill-rule:nonzero;stroke:none"
         d="m 1870.79,549.242 c -5.37,0 -10.56,2.828 -13.34,7.86 -4.08,7.367 -1.41,16.617 5.95,20.687 73.05,40.43 139.12,97.691 196.41,170.203 5.26,6.567 14.81,7.699 21.4,2.528 6.6,-5.239 7.72,-14.79 2.52,-21.391 -59.82,-75.719 -128.99,-135.59 -205.58,-177.988 -2.33,-1.282 -4.86,-1.899 -7.36,-1.899" /><path
         id="path392"
         style="fill:#ffffff;fill-opacity:1;fill-rule:nonzero;stroke:none"
         d="m 2197.39,950.93 c -22.92,-51.75 -50.12,-103.27 -82.24,-152.11" /><path
         id="path394"
         style="fill:#000000;fill-opacity:1;fill-rule:nonzero;stroke:none"
         d="m 2115.13,783.59 c -2.87,0 -5.76,0.801 -8.35,2.5 -7.02,4.64 -8.97,14.07 -4.36,21.09 29.77,45.269 57.05,95.711 81.05,149.91 3.42,7.672 12.39,11.148 20.09,7.75 7.69,-3.379 11.16,-12.399 7.75,-20.059 -24.67,-55.75 -52.75,-107.679 -83.43,-154.32 -2.93,-4.461 -7.79,-6.871 -12.75,-6.871" /><path
         id="path396"
         style="fill:#ffffff;fill-opacity:1;fill-rule:nonzero;stroke:none"
         d="M 1812.08,1506.89 V 785.59" /><path
         id="path398"
         style="fill:#000000;fill-opacity:1;fill-rule:nonzero;stroke:none"
         d="m 1812.08,770.352 c -8.42,0 -15.23,6.82 -15.23,15.238 v 721.3 c 0,8.42 6.81,15.23 15.23,15.23 8.41,0 15.22,-6.81 15.22,-15.23 v -721.3 c 0,-8.418 -6.81,-15.238 -15.22,-15.238" /><path
         id="path400"
         style="fill:#000000;fill-opacity:1;fill-rule:nonzero;stroke:none"
         d="m 4604.48,5988.97 c -8.42,0 -15.22,6.81 -15.22,15.23 v 506.56 c 0,8.41 6.8,15.23 15.22,15.23 8.42,0 15.24,-6.82 15.24,-15.23 V 6004.2 c 0,-8.42 -6.82,-15.23 -15.24,-15.23" /><path
         id="path402"
         style="fill:#000000;fill-opacity:1;fill-rule:nonzero;stroke:none"
         d="m 4798,5920.04 c -8.42,0 -15.24,6.81 -15.24,15.23 v 322.21 c 0,8.41 6.82,15.23 15.24,15.23 8.42,0 15.22,-6.82 15.22,-15.23 v -322.21 c 0,-8.42 -6.8,-15.23 -15.22,-15.23" /><path
         id="path404"
         style="fill:#000000;fill-opacity:1;fill-rule:nonzero;stroke:none"
         d="m 3719.37,6061.88 c -8.42,0 -15.23,6.82 -15.23,15.23 v 301.44 c 0,8.42 6.81,15.23 15.23,15.23 8.41,0 15.22,-6.81 15.22,-15.23 v -301.44 c 0,-8.41 -6.81,-15.23 -15.22,-15.23" /><path
         id="path406"
         style="fill:#000000;fill-opacity:1;fill-rule:nonzero;stroke:none"
         d="m 1907.14,4012.41 h -249.36 c -8.41,0 -15.23,6.81 -15.23,15.23 0,8.41 6.82,15.23 15.23,15.23 h 249.36 c 8.42,0 15.23,-6.82 15.23,-15.23 0,-8.42 -6.81,-15.23 -15.23,-15.23" /><path
         id="path408"
         style="fill:#000000;fill-opacity:1;fill-rule:nonzero;stroke:none"
         d="m 1922.68,3728.56 h -430.23 c -8.41,0 -15.22,6.82 -15.22,15.24 0,8.42 6.81,15.22 15.22,15.22 h 430.23 c 8.41,0 15.23,-6.8 15.23,-15.22 0,-8.42 -6.82,-15.24 -15.23,-15.24" /><path
         id="path410"
         style="fill:#000000;fill-opacity:1;fill-rule:nonzero;stroke:none"
         d="m 2267.47,2840.95 h -344.79 c -8.42,0 -15.23,6.81 -15.23,15.23 0,8.41 6.81,15.23 15.23,15.23 h 344.79 c 8.41,0 15.23,-6.82 15.23,-15.23 0,-8.42 -6.82,-15.23 -15.23,-15.23" /><path
         id="path412"
         style="fill:#000000;fill-opacity:1;fill-rule:nonzero;stroke:none"
         d="m 6689.22,4097.16 h -596.37 c -8.42,0 -15.23,6.81 -15.23,15.23 0,8.42 6.81,15.23 15.23,15.23 h 596.37 c 8.42,0 15.23,-6.81 15.23,-15.23 0,-8.42 -6.81,-15.23 -15.23,-15.23" /><path
         id="path414"
         style="fill:#000000;fill-opacity:1;fill-rule:nonzero;stroke:none"
         d="m 6331.88,4446.34 h -290.16 c -8.42,0 -15.23,6.81 -15.23,15.23 0,8.42 6.81,15.23 15.23,15.23 h 290.16 c 8.42,0 15.23,-6.81 15.23,-15.23 0,-8.42 -6.81,-15.23 -15.23,-15.23" /><path
         id="path416"
         style="fill:#ffffff;fill-opacity:1;fill-rule:nonzero;stroke:none"
         d="M 3653.97,1093.43 2920.47,607.301 V 1579.62 Z" /><path
         id="path418"
         style="fill:#000000;fill-opacity:1;fill-rule:nonzero;stroke:none"
         d="M 2935.7,1551.24 V 635.672 l 690.7,457.758 z m -15.23,-959.17 c -2.47,0 -4.95,0.602 -7.2,1.821 -4.95,2.64 -8.03,7.789 -8.03,13.41 v 972.319 c 0,5.61 3.08,10.76 8.03,13.41 4.92,2.67 10.93,2.35 15.62,-0.72 l 733.5,-486.18 c 4.25,-2.83 6.81,-7.59 6.81,-12.7 0,-5.12 -2.56,-9.88 -6.81,-12.7 l -733.5,-486.128 c -2.55,-1.661 -5.48,-2.532 -8.42,-2.532" /><path
         id="path420"
         style="fill:#ffffff;fill-opacity:1;fill-rule:nonzero;stroke:none"
         d="m 3653.97,1093.43 156.39,-103.629 156.36,103.629 733.48,-486.129 v 0 H 4280.71 2920.47 l 733.5,486.129" /><path
         id="path422"
         style="fill:#000000;fill-opacity:1;fill-rule:nonzero;stroke:none"
         d="m 2971.02,622.531 h 1678.63 l -682.93,452.639 -147.94,-98.068 c -5.12,-3.391 -11.72,-3.391 -16.84,0 l -147.97,98.068 z M 4700.81,592.07 c -0.21,0 -0.4,0.032 -0.61,0 H 2920.47 c -6.72,0 -12.64,4.399 -14.58,10.828 -1.94,6.461 0.57,13.391 6.16,17.102 l 733.51,486.13 c 5.11,3.39 11.72,3.39 16.83,0 l 147.97,-98.06 147.95,98.06 c 5.11,3.39 11.71,3.39 16.83,0 l 731.23,-484.642 c 5.65,-2.226 9.67,-7.726 9.67,-14.187 0,-8.41 -6.81,-15.231 -15.23,-15.231" /><path
         id="path424"
         style="fill:#ffffff;fill-opacity:1;fill-rule:nonzero;stroke:none"
         d="M 4700.2,1579.62 3966.72,1093.43 4700.2,607.301 Z" /><path
         id="path426"
         style="fill:#000000;fill-opacity:1;fill-rule:nonzero;stroke:none"
         d="M 3994.28,1093.43 4684.97,635.672 V 1551.24 Z M 4700.2,592.07 c -2.94,0 -5.87,0.871 -8.42,2.532 l -733.47,486.128 c -4.26,2.82 -6.82,7.58 -6.82,12.7 0,5.11 2.56,9.87 6.82,12.7 l 733.47,486.18 c 4.68,3.07 10.71,3.39 15.61,0.72 4.96,-2.65 8.04,-7.8 8.04,-13.41 V 607.301 c 0,-5.621 -3.08,-10.77 -8.04,-13.41 -2.24,-1.219 -4.72,-1.821 -7.19,-1.821" /><path
         id="path428"
         style="fill:#ffffff;fill-opacity:1;fill-rule:nonzero;stroke:none"
         d="m 3556.26,1579.62 -160.58,278.09 -160.56,-278.09 h -314.65 l 733.5,-486.19 156.39,-103.629 156.36,103.629 733.48,486.19 H 3556.26" /><path
         id="path430"
         style="fill:#000000;fill-opacity:1;fill-rule:nonzero;stroke:none"
         d="m 2971,1564.38 839.36,-556.31 839.31,556.31 H 3556.26 c -5.44,0 -10.46,2.92 -13.19,7.62 L 3395.68,1827.27 3248.32,1572 c -2.72,-4.7 -7.75,-7.62 -13.2,-7.62 z m 839.36,-589.81 c -2.93,0 -5.86,0.84 -8.42,2.532 l -889.89,589.808 c -5.59,3.72 -8.1,10.66 -6.16,17.11 1.94,6.42 7.86,10.82 14.58,10.82 h 305.86 l 156.16,270.49 c 5.44,9.4 20.94,9.4 26.38,0 l 156.18,-270.49 H 4700.2 c 6.72,0 12.64,-4.4 14.58,-10.82 1.94,-6.45 -0.57,-13.39 -6.17,-17.11 L 3818.78,977.102 c -2.56,-1.692 -5.49,-2.532 -8.42,-2.532" /><path
         id="path432"
         style="fill:#ffffff;fill-opacity:1;fill-rule:nonzero;stroke:none"
         d="m 5260.31,607.301 c -13.14,68.59 -73.33,120.488 -145.79,120.488 h -25.87 c 0,106.242 -86.12,192.332 -192.35,192.332 -22.81,0 -44.6,-4.141 -64.9,-11.43 -35.38,120.999 -147.02,209.449 -279.46,209.449 -160.9,0 -291.33,-130.441 -291.33,-291.359 0,-13.062 1.17,-25.879 2.87,-38.492 h -20.44 c -98.68,0 -178.74,-80.039 -178.74,-178.699 0,-0.801 0.08,-1.508 0.17,-2.289 h 1195.84" /><path
         id="path434"
         style="fill:#000000;fill-opacity:1;fill-rule:nonzero;stroke:none"
         d="m 4080.03,622.531 h 1160.52 c -18.19,53.117 -68.55,90.039 -126.03,90.039 h -25.87 c -8.42,0 -15.23,6.801 -15.23,15.219 0,97.652 -79.46,177.09 -177.12,177.09 -20.2,0 -40.3,-3.527 -59.76,-10.52 -3.95,-1.398 -8.28,-1.14 -12.06,0.77 -3.73,1.902 -6.53,5.262 -7.7,9.281 -34.17,116.89 -143.08,198.51 -264.84,198.51 -152.24,0 -276.11,-123.889 -276.11,-276.139 0,-11.011 0.87,-22.582 2.74,-36.472 0.58,-4.329 -0.75,-8.739 -3.63,-12.039 -2.9,-3.301 -7.08,-5.2 -11.46,-5.2 h -20.44 c -85.81,0 -156.39,-66.429 -163.01,-150.539 z M 5260.31,592.07 H 4064.47 c -7.73,0 -14.24,5.801 -15.11,13.481 -0.08,0.59 -0.29,3.437 -0.29,4.039 0,106.93 87.01,193.93 193.97,193.93 h 3.41 c -0.73,8.21 -1.07,15.832 -1.07,23.261 0,169.059 137.51,306.599 306.56,306.599 129.98,0 246.78,-83.79 289.32,-205.591 18.06,5.02 36.49,7.551 55.04,7.551 109.33,0 199.21,-84.949 207.03,-192.32 h 11.19 c 78.39,0 146,-55.848 160.75,-132.86 0.85,-4.469 -0.32,-9.082 -3.22,-12.551 -2.89,-3.519 -7.2,-5.539 -11.74,-5.539" /><path
         id="path436"
         style="fill:#000000;fill-opacity:1;fill-rule:nonzero;stroke:none"
         d="m 5023.16,1100.96 c -8.41,0 -15.22,6.8 -15.22,15.22 v 703.61 c 0,8.42 6.81,15.23 15.22,15.23 8.42,0 15.24,-6.81 15.24,-15.23 v -703.61 c 0,-8.42 -6.82,-15.22 -15.24,-15.22" /><path
         id="path438"
         style="fill:#000000;fill-opacity:1;fill-rule:nonzero;stroke:none"
         d="m 4663.87,1804.57 c -8.42,0 -15.23,6.81 -15.23,15.22 v 194.92 c 0,8.41 6.81,15.22 15.23,15.22 8.42,0 15.22,-6.81 15.22,-15.22 v -194.92 c 0,-8.41 -6.8,-15.22 -15.22,-15.22" /><path
         id="path440"
         style="fill:#000000;fill-opacity:1;fill-rule:nonzero;stroke:none"
         d="m 3021.13,1891.89 c -8.42,0 -15.22,6.81 -15.22,15.23 v 242.62 c 0,8.41 6.8,15.23 15.22,15.23 8.42,0 15.23,-6.82 15.23,-15.23 v -242.62 c 0,-8.42 -6.81,-15.23 -15.23,-15.23" /><path
         id="path442"
         style="fill:#000000;fill-opacity:1;fill-rule:nonzero;stroke:none"
         d="m 2649.43,1769.56 c -8.42,0 -15.23,6.81 -15.23,15.23 v 616.58 c 0,8.42 6.81,15.23 15.23,15.23 8.42,0 15.23,-6.81 15.23,-15.23 v -616.58 c 0,-8.42 -6.81,-15.23 -15.23,-15.23" /></g></g></svg>